<svg width="74" height="104" viewBox="0 0 74 104" fill="none" xmlns="http://www.w3.org/2000/svg">
<path d="M73.6953 104H2.25781V88.5312L35.1641 53.9375C43.2734 44.7031 47.3281 37.3672 47.3281 31.9297C47.3281 27.5234 46.3672 24.1719 44.4453 21.875C42.5234 19.5781 39.7344 18.4297 36.0781 18.4297C32.4688 18.4297 29.5391 19.9766 27.2891 23.0703C25.0391 26.1172 23.9141 29.9375 23.9141 34.5312H0.148438C0.148438 28.25 1.71875 22.4609 4.85938 17.1641C8 11.8203 12.3594 7.64844 17.9375 4.64844C23.5156 1.64844 29.75 0.148438 36.6406 0.148438C47.7031 0.148438 56.2109 2.70312 62.1641 7.8125C68.1641 12.9219 71.1641 20.2578 71.1641 29.8203C71.1641 33.8516 70.4141 37.7891 68.9141 41.6328C67.4141 45.4297 65.0703 49.4375 61.8828 53.6562C58.7422 57.8281 53.6562 63.4297 46.625 70.4609L33.4062 85.7188H73.6953V104Z" fill="white"/>
</svg>
