<?xml version="1.0" standalone="no"?>
<!DOCTYPE svg PUBLIC "-//W3C//DTD SVG 20010904//EN"
 "http://www.w3.org/TR/2001/REC-SVG-20010904/DTD/svg10.dtd">
<svg version="1.0" xmlns="http://www.w3.org/2000/svg"
 width="225.000000pt" height="300.000000pt" viewBox="0 0 225.000000 300.000000"
 preserveAspectRatio="xMidYMid meet">

<g transform="translate(0.000000,300.000000) scale(0.100000,-0.100000)"
fill="#000000" stroke="none">
<path d="M775 2421 c-141 -38 -218 -65 -385 -135 -74 -32 -145 -61 -157 -66
-27 -11 -29 -23 -7 -44 25 -26 54 -19 175 38 312 148 493 195 683 175 299 -31
468 -175 467 -400 0 -113 -31 -234 -128 -509 -181 -512 -244 -662 -269 -637
-3 3 -9 29 -14 59 -45 285 -61 326 -124 314 -39 -8 -40 -9 -27 -48 6 -18 17
-87 26 -152 9 -66 25 -138 35 -162 11 -24 20 -56 20 -71 0 -15 5 -46 10 -68 5
-23 12 -70 15 -105 6 -70 14 -80 62 -80 28 0 35 5 50 37 13 28 40 53 98 91
147 98 259 161 335 189 41 15 78 32 82 37 9 14 -10 36 -31 36 -40 0 -246 -97
-362 -170 -70 -44 -132 -80 -138 -80 -13 0 -31 64 -31 113 0 37 1 38 29 32 23
-5 33 -1 53 23 39 46 107 213 201 489 146 428 175 548 163 681 -10 109 -38
172 -107 247 -76 81 -138 121 -247 157 -76 26 -105 30 -227 34 -131 4 -147 3
-250 -25z"/>
</g>
</svg>
