<?xml version="1.0" standalone="no"?>
<!DOCTYPE svg PUBLIC "-//W3C//DTD SVG 20010904//EN"
 "http://www.w3.org/TR/2001/REC-SVG-20010904/DTD/svg10.dtd">
<svg version="1.0" xmlns="http://www.w3.org/2000/svg"
 width="260.000000pt" height="250.000000pt" viewBox="0 0 260.000000 250.000000"
 preserveAspectRatio="xMidYMid meet">

<g transform="translate(0.000000,250.000000) scale(0.100000,-0.100000)"
fill="#000000" stroke="none">
<path d="M1390 2208 c-36 -16 -99 -43 -140 -60 -94 -37 -262 -125 -341 -179
-128 -86 -245 -235 -291 -367 -18 -53 -23 -88 -23 -167 0 -89 3 -107 28 -160
63 -135 193 -231 557 -407 284 -139 423 -198 510 -217 64 -15 69 -14 80 14 5
14 15 22 22 20 15 -6 78 -96 78 -111 0 -7 -75 -30 -167 -53 -173 -44 -328
-106 -339 -136 -14 -36 14 -39 78 -8 79 38 199 75 345 105 95 19 115 20 136 9
42 -22 92 23 65 59 -7 10 -42 55 -77 100 -35 46 -75 106 -88 133 -23 46 -177
259 -192 265 -4 1 -18 -9 -30 -22 -16 -17 -22 -32 -18 -48 4 -13 50 -79 102
-147 55 -71 93 -127 88 -132 -19 -19 -176 46 -663 275 -188 89 -312 162 -372
219 -121 117 -139 276 -51 452 105 209 269 327 648 466 115 43 145 61 145 89
0 38 -23 40 -90 8z"/>
</g>
</svg>
