<svg width="22" height="22" viewBox="0 0 22 22" fill="none" xmlns="http://www.w3.org/2000/svg">
<path d="M13.97 11C13.97 9.35001 12.65 8.03001 11 8.03001C9.35 8.03001 8.03 9.35001 8.03 11C8.03 12.65 9.35 13.97 11 13.97C12.65 13.97 13.97 12.65 13.97 11ZM15.51 11C15.51 13.53 13.53 15.51 11 15.51C8.47 15.51 6.49 13.53 6.49 11C6.49 8.47001 8.47 6.49001 11 6.49001C13.53 6.49001 15.51 8.47001 15.51 11ZM16.72 6.27001C16.72 6.93001 16.28 7.37001 15.62 7.37001C14.96 7.37001 14.52 6.93001 14.52 6.27001C14.52 5.61001 14.96 5.17001 15.62 5.17001C16.28 5.17001 16.72 5.72001 16.72 6.27001ZM11 3.74001C9.68 3.74001 6.93 3.63001 5.83 4.07001C5.06 4.40001 4.4 5.06001 4.18 5.83001C3.74 6.93001 3.85 9.68001 3.85 11C3.85 12.32 3.74 15.07 4.18 16.17C4.4 16.94 5.06 17.6 5.83 17.82C6.93 18.26 9.79 18.15 11 18.15C12.21 18.15 15.07 18.26 16.17 17.82C16.94 17.49 17.49 16.94 17.82 16.17C18.26 14.96 18.15 12.21 18.15 11C18.15 9.79001 18.26 6.93001 17.82 5.83001C17.6 5.06001 16.94 4.40001 16.17 4.18001C15.07 3.63001 12.32 3.74001 11 3.74001ZM19.8 11V14.63C19.8 15.95 19.36 17.27 18.37 18.37C17.38 19.36 16.06 19.8 14.63 19.8H7.37C6.05 19.8 4.73 19.36 3.63 18.37C2.75 17.38 2.2 16.06 2.2 14.63V11V7.37001C2.2 5.94001 2.75 4.62001 3.63 3.63001C4.73 2.75001 6.05 2.20001 7.37 2.20001H14.63C15.95 2.20001 17.27 2.64001 18.37 3.63001C19.25 4.62001 19.8 5.94001 19.8 7.37001V11Z" fill="#863D33"/>
</svg>
