<svg width="188" height="40" viewBox="0 0 188 40" fill="none" xmlns="http://www.w3.org/2000/svg">
<path d="M0.712891 30.4785C0.621745 30.4785 0.537109 30.4492 0.458984 30.3906C0.38737 30.3385 0.341797 30.2637 0.322266 30.166C0.152995 29.2936 0.0553385 28.1966 0.0292969 26.875C0.00976562 25.5469 0 24.4336 0 23.5352C0 21.0872 0.0585938 17.9004 0.175781 13.9746C0.234375 11.7871 0.266927 10.1562 0.273438 9.08203V9.05273C0.273438 8.96159 0.302734 8.88021 0.361328 8.80859C0.426432 8.73047 0.511068 8.6849 0.615234 8.67188C0.901693 8.63281 1.34115 8.61328 1.93359 8.61328C2.04427 8.61328 2.13542 8.65234 2.20703 8.73047C2.28516 8.80208 2.32747 8.89323 2.33398 9.00391C2.32747 10.0977 2.29492 11.722 2.23633 13.877C2.11914 17.946 2.06055 21.3021 2.06055 23.9453C2.06055 26.3737 2.14193 28.2389 2.30469 29.541C6.43229 29.1634 9.95443 28.6491 12.8711 27.998L12.9688 27.9883C13.0404 27.9883 13.1055 28.0078 13.1641 28.0469C13.2878 28.1185 13.3496 28.2292 13.3496 28.3789C13.3496 28.5677 13.2487 28.6947 13.0469 28.7598C10.026 29.4434 6.3737 29.9707 2.08984 30.3418C2.07031 30.3548 2.00846 30.3613 1.9043 30.3613L0.712891 30.4785ZM11.6074 17.4316C11.3405 17.4316 11.0638 17.3763 10.7773 17.2656C10.6276 17.1875 10.5527 17.0671 10.5527 16.9043C10.5527 16.8522 10.5625 16.7969 10.582 16.7383C10.6602 16.5885 10.7806 16.5137 10.9434 16.5137C10.9954 16.5137 11.0475 16.5267 11.0996 16.5527C11.2689 16.6178 11.4382 16.6504 11.6074 16.6504C11.7572 16.6504 11.9036 16.6243 12.0469 16.5723C12.4766 16.4095 12.7663 16.2044 12.916 15.957C13.0007 15.8268 13.1113 15.7617 13.248 15.7617C13.3132 15.7617 13.3783 15.778 13.4434 15.8105C13.5801 15.8887 13.6484 16.0026 13.6484 16.1523C13.6484 16.3542 13.4596 16.6016 13.082 16.8945C12.8542 17.0768 12.5905 17.2168 12.291 17.3145C12.0697 17.3926 11.8418 17.4316 11.6074 17.4316ZM12.4668 24.9414C12.2975 24.9414 12.138 24.9284 11.9883 24.9023C11.3112 24.7917 10.8262 24.362 10.5332 23.6133C10.4095 23.2552 10.3477 22.819 10.3477 22.3047C10.3477 22.0964 10.3574 21.875 10.377 21.6406C10.5332 19.8698 10.709 18.9225 10.9043 18.7988C11.0866 18.7012 11.3014 18.6491 11.5488 18.6426C12.0957 18.6426 12.418 18.6979 12.5156 18.8086C12.5807 18.8867 12.6133 18.9681 12.6133 19.0527L12.584 19.2773C12.3496 20.6641 12.2324 21.6471 12.2324 22.2266C12.2324 22.6237 12.2845 22.946 12.3887 23.1934C12.5905 23.623 12.7923 23.8509 12.9941 23.877C13.196 23.903 13.3294 23.916 13.3945 23.916C14.026 23.916 15.1328 23.3431 16.7148 22.1973C16.806 22.1322 16.8906 22.0736 16.9688 22.0215C17.0534 21.9629 17.1348 21.9336 17.2129 21.9336C17.3431 21.9336 17.4473 21.9922 17.5254 22.1094C17.5775 22.181 17.6035 22.2559 17.6035 22.334C17.6035 22.4642 17.5449 22.5716 17.4277 22.6562L16.9199 23.0078C15.7871 23.8151 14.8561 24.3424 14.127 24.5898C13.515 24.8242 12.9616 24.9414 12.4668 24.9414ZM18.791 26.2012C18.1986 26.2012 17.694 26.0124 17.2773 25.6348C16.8997 25.3027 16.6003 24.8503 16.3789 24.2773C15.9818 23.2031 15.7799 21.875 15.7734 20.293C15.7865 18.0794 15.985 15.8757 16.3691 13.6816C16.7533 11.4876 17.1081 9.88932 17.4336 8.88672C17.6419 8.24219 17.9479 7.54557 18.3516 6.79688C18.7617 6.04167 19.2467 5.34831 19.8066 4.7168C20.7897 3.61654 21.8444 3.06641 22.9707 3.06641C23.5697 3.06641 24.1426 3.36589 24.6895 3.96484C25.2884 4.66797 25.5879 5.56315 25.5879 6.65039C25.5879 7.96549 25.2493 9.49544 24.5723 11.2402C23.9408 12.8483 23.179 14.4303 22.2871 15.9863C21.3952 17.5358 20.5358 18.8835 19.709 20.0293C18.8887 21.1751 18.2734 21.9401 17.8633 22.3242C17.8503 22.3307 17.8405 22.3405 17.834 22.3535C18.0684 24.222 18.6543 25.1562 19.5918 25.1562C19.7806 25.1562 19.9792 25.1204 20.1875 25.0488C21.1445 24.7624 22.4727 23.6719 24.1719 21.7773C24.2565 21.6927 24.3574 21.6504 24.4746 21.6504C24.5658 21.6504 24.6504 21.6862 24.7285 21.7578C24.8132 21.8294 24.8555 21.9238 24.8555 22.041C24.8555 22.1322 24.8229 22.2168 24.7578 22.2949C23.3125 23.9095 22.0983 24.974 21.1152 25.4883C20.8874 25.612 20.627 25.7324 20.334 25.8496C20.0475 25.9603 19.7741 26.0482 19.5137 26.1133C19.2598 26.1719 19.0189 26.2012 18.791 26.2012ZM17.7461 21.3184C18.5143 20.4395 19.5072 19.0332 20.7246 17.0996C21.9421 15.1595 22.9805 13.112 23.8398 10.957C24.3737 9.58333 24.6699 8.57096 24.7285 7.91992C24.7871 7.26237 24.8164 6.85547 24.8164 6.69922C24.8164 5.78776 24.5788 5.05208 24.1035 4.49219C23.7129 4.06901 23.3255 3.85742 22.9414 3.85742C22.7135 3.85742 22.4922 3.92904 22.2773 4.07227C21.4831 4.58659 20.7311 5.66081 20.0215 7.29492C19.7415 7.93945 19.5169 8.52539 19.3477 9.05273C19.1263 9.72982 18.8757 10.7617 18.5957 12.1484C18.3223 13.5352 18.1074 14.9447 17.9512 16.377C17.7949 17.8027 17.7168 19.0658 17.7168 20.166C17.7168 20.5566 17.7266 20.9408 17.7461 21.3184ZM24.2363 17.4316C23.9694 17.4316 23.6927 17.3763 23.4062 17.2656C23.2565 17.1875 23.1816 17.0671 23.1816 16.9043C23.1816 16.8522 23.1914 16.7969 23.2109 16.7383C23.2891 16.5885 23.4095 16.5137 23.5723 16.5137C23.6243 16.5137 23.6764 16.5267 23.7285 16.5527C23.8978 16.6178 24.0671 16.6504 24.2363 16.6504C24.3861 16.6504 24.5326 16.6243 24.6758 16.5723C25.1055 16.4095 25.3952 16.2044 25.5449 15.957C25.6296 15.8268 25.7402 15.7617 25.877 15.7617C25.9421 15.7617 26.0072 15.778 26.0723 15.8105C26.209 15.8887 26.2773 16.0026 26.2773 16.1523C26.2773 16.3542 26.0885 16.6016 25.7109 16.8945C25.4831 17.0768 25.2194 17.2168 24.9199 17.3145C24.6986 17.3926 24.4707 17.4316 24.2363 17.4316ZM25.0957 24.9414C24.9264 24.9414 24.7669 24.9284 24.6172 24.9023C23.9401 24.7917 23.4551 24.362 23.1621 23.6133C23.0384 23.2552 22.9766 22.819 22.9766 22.3047C22.9766 22.0964 22.9863 21.875 23.0059 21.6406C23.1621 19.8698 23.3379 18.9225 23.5332 18.7988C23.7155 18.7012 23.9303 18.6491 24.1777 18.6426C24.7246 18.6426 25.0469 18.6979 25.1445 18.8086C25.2096 18.8867 25.2422 18.9681 25.2422 19.0527L25.2129 19.2773C24.9785 20.6641 24.8613 21.6471 24.8613 22.2266C24.8613 22.6237 24.9134 22.946 25.0176 23.1934C25.2194 23.623 25.4212 23.8509 25.623 23.877C25.8249 23.903 25.9583 23.916 26.0234 23.916C26.6549 23.916 27.7617 23.3431 29.3438 22.1973C29.4349 22.1322 29.5195 22.0736 29.5977 22.0215C29.6823 21.9629 29.7637 21.9336 29.8418 21.9336C29.972 21.9336 30.0762 21.9922 30.1543 22.1094C30.2064 22.181 30.2324 22.2559 30.2324 22.334C30.2324 22.4642 30.1738 22.5716 30.0566 22.6562L29.5488 23.0078C28.416 23.8151 27.485 24.3424 26.7559 24.5898C26.1439 24.8242 25.5905 24.9414 25.0957 24.9414ZM30.4922 39.5215C29.7565 39.5215 29.1934 39.1829 28.8027 38.5059C28.5358 38.0566 28.4023 37.4447 28.4023 36.6699C28.4023 35.6868 28.666 34.4922 29.1934 33.0859C29.1999 33.0794 29.2031 33.0697 29.2031 33.0566C30.5443 29.86 32.1328 27.3438 33.9688 25.5078L34.4375 21.3184C33.194 23.4863 32.1751 24.7819 31.3809 25.2051C31.0749 25.3809 30.7266 25.4688 30.3359 25.4688C30.2188 25.4688 30.1081 25.459 30.0039 25.4395C29.4635 25.3158 29.0664 25.0033 28.8125 24.502C28.5651 23.9941 28.4414 23.3984 28.4414 22.7148C28.4414 21.5755 28.666 20.5111 29.1152 19.5215C29.2194 19.3457 29.4277 19.2578 29.7402 19.2578C29.916 19.2578 30.082 19.2643 30.2383 19.2773C30.4857 19.3034 30.6452 19.3327 30.7168 19.3652C30.8535 19.4499 30.9219 19.5638 30.9219 19.707C30.9219 19.7656 30.9089 19.8275 30.8828 19.8926C30.401 20.8105 30.1602 21.8587 30.1602 23.0371C30.1602 23.8704 30.2871 24.388 30.541 24.5898C30.5736 24.6159 30.6159 24.6289 30.668 24.6289C31.0716 24.6289 31.6738 24.0755 32.4746 22.9688C33.0801 22.1354 33.8092 20.8952 34.6621 19.248C34.7272 19.1113 34.8379 19.0332 34.9941 19.0137C35.1764 18.9941 35.3555 18.9844 35.5312 18.9844C35.7005 18.9844 35.8503 18.9876 35.9805 18.9941C36.1107 18.9941 36.2083 19.0365 36.2734 19.1211C36.3451 19.1992 36.3809 19.2904 36.3809 19.3945C36.3809 19.5573 36.2246 21.0384 35.9121 23.8379C36.9928 23.0632 38.1224 22.4382 39.3008 21.9629C39.3464 21.9434 39.3919 21.9336 39.4375 21.9336C39.6133 21.9336 39.7402 22.015 39.8184 22.1777C39.8314 22.2233 39.8379 22.2721 39.8379 22.3242C39.8379 22.5 39.7565 22.6237 39.5938 22.6953C38.2591 23.2292 36.9928 23.9681 35.7949 24.9121C35.3717 28.5645 35.0885 30.9473 34.9453 32.0605C34.8086 33.1543 34.7044 33.9095 34.6328 34.3262C34.3789 35.6283 33.9785 36.6895 33.4316 37.5098C32.8848 38.3301 32.2956 38.8997 31.6641 39.2188C31.2539 39.4206 30.8633 39.5215 30.4922 39.5215ZM30.0723 38.5449C30.1309 38.5449 30.1927 38.5352 30.2578 38.5156C30.7396 38.3659 31.2311 37.9167 31.7324 37.168C32.2663 36.4193 32.6569 35.4102 32.9043 34.1406C33.041 33.2878 33.2917 31.3216 33.6562 28.2422C33.7148 27.7669 33.7702 27.2884 33.8223 26.8066C32.3704 28.4342 31.0716 30.6185 29.9258 33.3594C29.4831 34.5508 29.2454 35.3743 29.2129 35.8301C29.1868 36.2858 29.1738 36.5723 29.1738 36.6895C29.1738 37.3014 29.278 37.7799 29.4863 38.125C29.6556 38.4049 29.8509 38.5449 30.0723 38.5449ZM40.459 24.1992C40.6283 24.1992 40.8203 24.1374 41.0352 24.0137C42.1745 23.3952 43.5775 22.015 45.2441 19.873C44.1764 19.1309 43.2357 18.7305 42.4219 18.6719C41.9271 18.6849 41.4909 18.8867 41.1133 19.2773C40.7357 19.6615 40.4362 20.1367 40.2148 20.7031C39.9349 21.4128 39.7949 22.1029 39.7949 22.7734C39.7949 23.0339 39.821 23.2715 39.873 23.4863C39.9707 23.89 40.0781 24.1113 40.1953 24.1504C40.319 24.1829 40.4069 24.1992 40.459 24.1992ZM39.7559 25.127C39.3522 25.127 39.0137 25.0228 38.7402 24.8145C38.1543 24.3717 37.8613 23.6523 37.8613 22.6562C37.8613 21.5365 38.2324 20.4688 38.9746 19.4531C39.4043 18.8867 39.8926 18.4798 40.4395 18.2324C40.9863 17.9785 41.5299 17.8516 42.0703 17.8516C42.3242 17.8516 42.5846 17.8743 42.8516 17.9199C43.7044 18.0566 44.6582 18.4993 45.7129 19.248L45.9473 18.9355C46.0579 18.7858 46.2858 18.7109 46.6309 18.7109C47.1712 18.7109 47.4902 18.7728 47.5879 18.8965C47.653 18.9746 47.6855 19.0625 47.6855 19.1602C47.6855 19.1927 47.679 19.2285 47.666 19.2676C47.4512 20.1139 47.3438 20.8724 47.3438 21.543C47.3438 22.0182 47.3958 22.4414 47.5 22.8125C47.6042 23.1836 47.7311 23.457 47.8809 23.6328C48.0371 23.8021 48.1966 23.8867 48.3594 23.8867C48.4831 23.8867 48.6198 23.8509 48.7695 23.7793C49.3945 23.4733 50.127 22.8971 50.9668 22.0508C51.0514 21.9792 51.1458 21.9401 51.25 21.9336C51.3542 21.9336 51.4453 21.9727 51.5234 22.0508C51.6016 22.1289 51.6406 22.2201 51.6406 22.3242C51.6406 22.4284 51.6016 22.5228 51.5234 22.6074C50.4102 23.7142 49.4466 24.4108 48.6328 24.6973L48.5938 24.707C48.2747 24.8242 47.959 24.8828 47.6465 24.8828C47.2493 24.8828 46.901 24.7786 46.6016 24.5703C45.8659 24.0755 45.498 23.125 45.498 21.7188C45.498 21.4062 45.5176 21.0775 45.5566 20.7324C44.4173 22.1387 43.4049 23.1868 42.5195 23.877C41.6406 24.5605 40.9993 24.9414 40.5957 25.0195C40.1921 25.0911 39.9121 25.127 39.7559 25.127ZM66.4023 24.9805C65.8815 24.9805 65.4421 24.8503 65.084 24.5898C64.5697 24.2188 64.3125 23.597 64.3125 22.7246L64.3223 22.373C64.3418 22.1387 64.3516 21.9141 64.3516 21.6992C64.3516 20.612 64.1921 19.7852 63.873 19.2188C63.7298 18.9844 63.5508 18.8672 63.3359 18.8672C63.1862 18.8672 63.0202 18.9193 62.8379 19.0234C62.0827 19.4727 61.1549 20.5046 60.0547 22.1191C59.5794 22.8223 59.2572 23.3138 59.0879 23.5938C59.0293 23.6914 58.9349 23.7533 58.8047 23.7793C58.5703 23.8053 58.3815 23.8184 58.2383 23.8184C58.0951 23.8184 57.9355 23.8053 57.7598 23.7793C57.5775 23.7728 57.457 23.7272 57.3984 23.6426C57.3464 23.5514 57.3203 23.4668 57.3203 23.3887V23.3105C57.4701 22.5033 57.5449 21.7122 57.5449 20.9375C57.5449 19.1992 57.265 17.998 56.7051 17.334C56.6204 17.2493 56.5228 17.207 56.4121 17.207C56.2233 17.207 55.9987 17.3242 55.7383 17.5586C55.0026 18.2031 54.0781 19.4629 52.9648 21.3379C52.3333 22.4121 51.7539 23.4473 51.2266 24.4434V24.4531C51.194 24.5247 51.1354 24.5801 51.0508 24.6191C51.0312 24.6322 51.015 24.6387 51.002 24.6387C50.9954 24.6387 50.9857 24.6419 50.9727 24.6484L50.9336 24.6582C50.7708 24.6842 50.6081 24.6973 50.4453 24.6973C50.2435 24.6973 50.0254 24.6842 49.791 24.6582H49.7812C49.6706 24.6387 49.5859 24.5931 49.5273 24.5215C49.4688 24.4434 49.4395 24.362 49.4395 24.2773C49.4395 24.2188 49.5143 23.6589 49.6641 22.5977L49.6738 22.5586C49.9603 20.6576 50.1263 19.0625 50.1719 17.7734V17.7637C50.1719 17.4512 50.3867 17.2949 50.8164 17.2949H51.2754C51.3796 17.3014 51.4902 17.3047 51.6074 17.3047C51.7311 17.3047 51.8288 17.3438 51.9004 17.4219C51.972 17.4935 52.0078 17.5879 52.0078 17.7051C51.9753 18.9746 51.8288 20.4492 51.5684 22.1289C53.2415 19.1536 54.6641 17.3047 55.8359 16.582C55.9922 16.4844 56.1452 16.403 56.2949 16.3379L56.3242 16.3281C56.5977 16.2174 56.8581 16.1621 57.1055 16.1621C57.3203 16.1621 57.5254 16.2077 57.7207 16.2988C58.2285 16.5397 58.6126 16.9987 58.873 17.6758C59.2116 18.5872 59.3809 19.6419 59.3809 20.8398C59.3809 21.1589 59.3678 21.4844 59.3418 21.8164C60.7611 19.8633 61.9362 18.6491 62.8672 18.1738C63.3099 17.9395 63.7135 17.8223 64.0781 17.8223C64.2409 17.8223 64.3971 17.8483 64.5469 17.9004C65.0286 18.0632 65.3997 18.4082 65.6602 18.9355C66.0117 19.6777 66.1875 20.5957 66.1875 21.6895C66.1875 21.9238 66.1777 22.168 66.1582 22.4219L66.1484 22.7832C66.1484 23.5449 66.36 23.9714 66.7832 24.0625C66.8613 24.082 66.946 24.0918 67.0371 24.0918C67.2454 24.0918 67.4831 24.043 67.75 23.9453C68.6354 23.6198 69.5957 22.985 70.6309 22.041C70.7155 21.9694 70.8099 21.9336 70.9141 21.9336C71.0182 21.9401 71.1061 21.9824 71.1777 22.0605C71.2493 22.1387 71.2852 22.2266 71.2852 22.3242C71.2852 22.4349 71.2428 22.5326 71.1582 22.6172C70.0514 23.6328 69 24.3229 68.0039 24.6875C67.457 24.8828 66.9232 24.9805 66.4023 24.9805ZM73.3516 23.9648C73.013 23.9648 72.6647 23.9583 72.3066 23.9453C71.8835 23.9388 71.3333 23.9355 70.6562 23.9355C70.513 23.9355 70.3926 23.89 70.2949 23.7988C70.2038 23.7077 70.1549 23.5938 70.1484 23.457C70.1484 23.3138 70.1908 23.1966 70.2754 23.1055C70.3665 23.0078 70.4837 22.9557 70.627 22.9492C70.8223 22.9427 71.0273 22.9395 71.2422 22.9395C71.9974 22.9395 72.7852 22.959 73.6055 22.998C74.0612 23.0176 74.4648 23.0273 74.8164 23.0273C75.0117 23.0273 75.1159 23.0143 75.1289 22.9883C75.1484 22.8516 75.1973 22.7669 75.2754 22.7344C75.3535 22.7018 75.4349 22.6855 75.5195 22.6855C75.7214 22.6855 75.8711 22.7474 75.9688 22.8711C76.0404 22.9688 76.0762 23.0957 76.0762 23.252C76.0241 23.4993 75.8092 23.6751 75.4316 23.7793C75.0605 23.8835 74.6797 23.9421 74.2891 23.9551C73.8984 23.9616 73.5859 23.9648 73.3516 23.9648ZM76.1016 38.2715C75.9909 38.2715 75.8965 38.2357 75.8184 38.1641C75.7337 38.0924 75.6914 37.9883 75.6914 37.8516L76.5508 17.5195C76.5573 17.4154 76.5964 17.3275 76.668 17.2559C76.7656 17.1582 77.1953 17.1094 77.957 17.1094C78.0677 17.1159 78.1589 17.1582 78.2305 17.2363C78.3021 17.3079 78.3379 17.3991 78.3379 17.5098L78.2598 19.4238C78.9499 18.5254 79.8092 17.9883 80.8379 17.8125C81.0332 17.7799 81.2253 17.7637 81.4141 17.7637C82.3906 17.7637 83.097 18.1217 83.5332 18.8379L83.5625 18.8867C83.8099 19.349 83.9336 19.847 83.9336 20.3809C83.9336 20.9408 83.8132 21.5299 83.5723 22.1484C84.321 22.0247 85.1706 21.9564 86.1211 21.9434C86.2318 21.9434 86.3229 21.9792 86.3945 22.0508C86.4727 22.1224 86.5117 22.2135 86.5117 22.3242C86.5117 22.4349 86.4759 22.5293 86.4043 22.6074C86.3327 22.679 86.2415 22.7181 86.1309 22.7246C84.9915 22.7441 84.0085 22.8385 83.1816 23.0078C82.4264 24.3424 81.5996 25.2897 80.7012 25.8496L80.6328 25.8887C80.1576 26.1296 79.7572 26.25 79.4316 26.25C79.2819 26.25 79.1452 26.224 79.0215 26.1719C78.6634 26.0091 78.4844 25.7357 78.4844 25.3516C78.4844 24.9609 78.6829 24.5443 79.0801 24.1016C79.5293 23.5807 80.3301 23.1022 81.4824 22.666L81.541 22.5488C81.8405 21.9824 82.0163 21.5169 82.0684 21.1523C82.127 20.7812 82.1562 20.5241 82.1562 20.3809C82.1562 19.9837 82.0618 19.6094 81.873 19.2578C81.7559 19.0625 81.5996 18.9193 81.4043 18.8281C81.1764 18.7174 80.9681 18.6621 80.7793 18.6621C80.5384 18.6621 80.2422 18.7728 79.8906 18.9941C79.0703 19.4694 78.4974 20.2539 78.1719 21.3477L77.4785 37.8613C77.4785 37.9655 77.4427 38.0534 77.3711 38.125C77.306 38.2031 77.2116 38.2454 77.0879 38.252C76.9707 38.265 76.847 38.2715 76.7168 38.2715H76.1016ZM79.4219 25.2832C79.6042 25.2832 79.8809 25.0879 80.252 24.6973C80.4928 24.4499 80.7012 24.1569 80.877 23.8184C80.6361 23.903 80.4049 24.0234 80.1836 24.1797C79.7018 24.5247 79.4089 24.8535 79.3047 25.166C79.3112 25.2441 79.3503 25.2832 79.4219 25.2832ZM85.2773 26.7188C84.9258 26.7188 84.75 26.5853 84.75 26.3184C84.8216 23.623 85.0137 20.6576 85.3262 17.4219C85.7754 12.6107 86.4818 8.74023 87.4453 5.81055C87.9596 4.4043 88.7344 3.24219 89.7695 2.32422C90.9219 1.30208 92.0579 0.791016 93.1777 0.791016C93.653 0.791016 94.0729 0.957031 94.4375 1.28906C94.9323 1.71875 95.248 2.48047 95.3848 3.57422C95.3978 3.69141 95.4043 3.8151 95.4043 3.94531C95.4043 5.23438 94.7435 7.02799 93.4219 9.32617C91.8659 12.015 89.7826 14.9186 87.1719 18.0371L87.1426 18.0664C87.0645 18.9583 86.9961 19.8145 86.9375 20.6348C87.8294 19.1439 88.5879 18.0762 89.2129 17.4316L89.252 17.4023C89.4212 17.2135 89.5807 17.0573 89.7305 16.9336C89.8867 16.8034 90.0853 16.6862 90.3262 16.582C90.515 16.5039 90.6875 16.4648 90.8438 16.4648C91.0065 16.4648 91.153 16.5039 91.2832 16.582C91.7064 16.849 92.0091 17.3568 92.1914 18.1055C92.3802 18.8542 92.5267 19.6745 92.6309 20.5664C92.7025 21.1393 92.7806 21.6764 92.8652 22.1777C92.9564 22.6725 93.0736 23.0664 93.2168 23.3594C93.4251 23.7565 93.6335 23.9974 93.8418 24.082C94.0501 24.1667 94.2324 24.209 94.3887 24.209C94.8444 24.209 95.4759 23.9258 96.2832 23.3594C96.7975 22.9948 97.3607 22.5521 97.9727 22.0312C98.0443 21.9727 98.1224 21.9434 98.207 21.9434C98.3372 21.9434 98.4447 21.9889 98.5293 22.0801C98.5879 22.1582 98.6172 22.2428 98.6172 22.334C98.6172 22.4447 98.5716 22.5423 98.4805 22.627C97.7318 23.265 97.0417 23.7923 96.4102 24.209C95.7266 24.6517 94.9844 24.9707 94.1836 25.166C93.9102 25.2246 93.653 25.2539 93.4121 25.2539C92.123 25.2539 91.319 24.375 91 22.6172C90.8372 21.7253 90.7298 20.957 90.6777 20.3125C90.5866 19.056 90.4401 18.3105 90.2383 18.0762C90.1276 17.946 90.0332 17.8809 89.9551 17.8809C89.5514 17.8809 88.5065 19.3913 86.8203 22.4121C86.7292 24.1243 86.6738 25.3613 86.6543 26.123V26.1621C86.6543 26.3704 86.5404 26.5137 86.3125 26.5918C86.0326 26.6764 85.6875 26.7188 85.2773 26.7188ZM87.2793 16.6699C89.4408 14.0267 91.2637 11.4486 92.748 8.93555C93.998 6.77409 94.623 5.11719 94.623 3.96484C94.623 3.86068 94.6165 3.75977 94.6035 3.66211C94.4277 2.26888 93.9427 1.57227 93.1484 1.57227C92.7839 1.57227 92.3802 1.71875 91.9375 2.01172C91.4232 2.35677 90.9349 2.85482 90.4727 3.50586C89.4831 4.89258 88.6823 7.36654 88.0703 10.9277C87.7383 12.8288 87.4746 14.7428 87.2793 16.6699ZM100.693 26.2305C99.541 26.1914 98.6458 25.9115 98.0078 25.3906C97.0964 24.6354 96.6406 23.6426 96.6406 22.4121C96.6406 22.0605 96.6829 21.7122 96.7676 21.3672C96.8652 20.9831 97.0085 20.6283 97.1973 20.3027C96.9499 19.8535 96.8262 19.3848 96.8262 18.8965C96.8262 18.3236 96.9661 17.806 97.2461 17.3438C97.526 16.875 97.9264 16.5169 98.4473 16.2695C98.8118 16.0938 99.2253 16.0059 99.6875 16.0059C100.111 16.0059 100.573 16.0807 101.074 16.2305L101.113 16.2402C101.888 16.5527 102.529 17.0508 103.037 17.7344C103.551 18.418 103.919 19.1927 104.141 20.0586C104.303 20.6771 104.385 21.2891 104.385 21.8945C104.378 22.207 104.355 22.5195 104.316 22.832H104.58C105.758 22.832 106.943 22.5488 108.135 21.9824C108.2 21.9499 108.265 21.9336 108.33 21.9336C108.473 21.9336 108.584 22.0085 108.662 22.1582C108.695 22.2168 108.711 22.2721 108.711 22.3242C108.711 22.487 108.636 22.6074 108.486 22.6855C107.158 23.3105 105.846 23.623 104.551 23.623L104.141 23.6133C103.991 24.1146 103.763 24.5671 103.457 24.9707C103.158 25.3678 102.783 25.6771 102.334 25.8984C101.885 26.1198 101.37 26.2305 100.791 26.2305H100.693ZM103.525 22.7832C103.577 22.5488 103.604 22.2493 103.604 21.8848C103.604 21.3444 103.529 20.8008 103.379 20.2539C103.19 19.5052 102.881 18.8379 102.451 18.252C102.021 17.6595 101.484 17.2331 100.84 16.9727C100.423 16.849 100.046 16.7871 99.707 16.7871C99.3555 16.7871 99.043 16.8555 98.7695 16.9922C98.3984 17.1615 98.112 17.4154 97.9102 17.7539C97.7083 18.0859 97.6074 18.457 97.6074 18.8672C97.6074 19.1211 97.6497 19.3685 97.7344 19.6094C98.0859 19.2904 98.3268 19.0853 98.457 18.9941C98.5482 18.9355 98.6328 18.9062 98.7109 18.9062C98.7826 18.9062 98.8509 18.9258 98.916 18.9648L99.1504 19.1211C99.196 19.1536 99.2448 19.1862 99.2969 19.2188C99.3555 19.2513 99.4303 19.2969 99.5215 19.3555C99.6191 19.4076 99.6777 19.4694 99.6973 19.541C99.7168 19.6061 99.7266 19.6549 99.7266 19.6875C99.7266 19.8372 99.6647 19.9479 99.541 20.0195C99.248 20.2539 99.0137 20.5599 98.8379 20.9375C99.9642 21.8294 101.344 22.4219 102.979 22.7148L103.525 22.7832ZM101.152 25.3809C101.367 25.3809 101.582 25.3451 101.797 25.2734C102.526 24.987 103.037 24.4141 103.33 23.5547C102.314 23.431 101.374 23.1803 100.508 22.8027C99.7786 22.4902 99.1374 22.1322 98.584 21.7285C98.5384 21.9368 98.5156 22.1745 98.5156 22.4414C98.5156 23.1445 98.7109 23.7598 99.1016 24.2871C99.4076 24.6842 99.7559 24.9674 100.146 25.1367C100.537 25.2995 100.872 25.3809 101.152 25.3809ZM110.523 26.4258C109.69 26.4258 108.964 26.1523 108.346 25.6055C107.727 25.0521 107.324 24.1732 107.135 22.9688C106.998 21.9857 106.93 20.9603 106.93 19.8926C106.93 18.0241 107.105 16.0189 107.457 13.877C107.757 12.0801 108.115 10.3906 108.531 8.80859L107.818 8.47656C106.692 7.92318 105.608 7.46745 104.566 7.10938C103.518 6.7513 102.509 6.57227 101.539 6.57227C101.305 6.57227 101.067 6.58203 100.826 6.60156C99.6087 6.69922 98.349 7.21029 97.0469 8.13477C96.9753 8.18685 96.9004 8.21289 96.8223 8.21289C96.6921 8.21289 96.5846 8.15755 96.5 8.04688C96.4479 7.97526 96.4219 7.90365 96.4219 7.83203C96.4219 7.69531 96.4772 7.58464 96.5879 7.5C98.0072 6.48438 99.1172 5.94076 99.918 5.86914C100.712 5.79753 101.249 5.76172 101.529 5.76172C102.545 5.76172 103.538 5.92773 104.508 6.25977C105.738 6.67643 106.952 7.17773 108.15 7.76367L108.736 8.03711C109.277 6.11654 109.785 4.5931 110.26 3.4668C110.318 3.29753 110.393 3.20638 110.484 3.19336C110.576 3.18034 110.644 3.17383 110.689 3.17383C110.82 3.17383 111.015 3.21615 111.275 3.30078L111.822 3.45703C112.031 3.52865 112.135 3.6556 112.135 3.83789C112.135 3.88346 112.128 3.92904 112.115 3.97461C111.692 5.19206 111.194 6.81641 110.621 8.84766C111.598 9.24479 112.369 9.4694 112.936 9.52148C113.508 9.57357 113.873 9.59961 114.029 9.59961C114.856 9.59961 115.689 9.41406 116.529 9.04297C116.581 9.01693 116.637 9.00391 116.695 9.00391C116.858 9.00391 116.975 9.08203 117.047 9.23828C117.066 9.29036 117.076 9.34245 117.076 9.39453C117.076 9.55729 117.001 9.67773 116.852 9.75586C115.901 10.179 114.967 10.3906 114.049 10.3906C113.893 10.3906 113.736 10.3841 113.58 10.3711C112.519 10.2865 111.464 10.0326 110.416 9.60938C109.628 12.6432 109.14 15.1953 108.951 17.2656C108.827 18.5872 108.766 19.6257 108.766 20.3809C108.766 22.8483 109.059 24.4173 109.645 25.0879C109.951 25.446 110.351 25.625 110.846 25.625C111.243 25.612 111.666 25.4818 112.115 25.2344C113.15 24.668 114.14 23.6328 115.084 22.1289C115.169 22.0052 115.283 21.9434 115.426 21.9434C115.497 21.9434 115.566 21.9596 115.631 21.9922C115.755 22.0768 115.816 22.1875 115.816 22.3242C115.816 22.3958 115.797 22.4674 115.758 22.5391C114.111 25.1302 112.366 26.4258 110.523 26.4258ZM117.951 26.2305C116.799 26.1914 115.904 25.9115 115.266 25.3906C114.354 24.6354 113.898 23.6426 113.898 22.4121C113.898 22.0605 113.941 21.7122 114.025 21.3672C114.123 20.9831 114.266 20.6283 114.455 20.3027C114.208 19.8535 114.084 19.3848 114.084 18.8965C114.084 18.3236 114.224 17.806 114.504 17.3438C114.784 16.875 115.184 16.5169 115.705 16.2695C116.07 16.0938 116.483 16.0059 116.945 16.0059C117.368 16.0059 117.831 16.0807 118.332 16.2305L118.371 16.2402C119.146 16.5527 119.787 17.0508 120.295 17.7344C120.809 18.418 121.177 19.1927 121.398 20.0586C121.561 20.6771 121.643 21.2891 121.643 21.8945C121.636 22.207 121.613 22.5195 121.574 22.832H121.838C123.016 22.832 124.201 22.5488 125.393 21.9824C125.458 21.9499 125.523 21.9336 125.588 21.9336C125.731 21.9336 125.842 22.0085 125.92 22.1582C125.952 22.2168 125.969 22.2721 125.969 22.3242C125.969 22.487 125.894 22.6074 125.744 22.6855C124.416 23.3105 123.104 23.623 121.809 23.623L121.398 23.6133C121.249 24.1146 121.021 24.5671 120.715 24.9707C120.415 25.3678 120.041 25.6771 119.592 25.8984C119.143 26.1198 118.628 26.2305 118.049 26.2305H117.951ZM120.783 22.7832C120.835 22.5488 120.861 22.2493 120.861 21.8848C120.861 21.3444 120.786 20.8008 120.637 20.2539C120.448 19.5052 120.139 18.8379 119.709 18.252C119.279 17.6595 118.742 17.2331 118.098 16.9727C117.681 16.849 117.303 16.7871 116.965 16.7871C116.613 16.7871 116.301 16.8555 116.027 16.9922C115.656 17.1615 115.37 17.4154 115.168 17.7539C114.966 18.0859 114.865 18.457 114.865 18.8672C114.865 19.1211 114.908 19.3685 114.992 19.6094C115.344 19.2904 115.585 19.0853 115.715 18.9941C115.806 18.9355 115.891 18.9062 115.969 18.9062C116.04 18.9062 116.109 18.9258 116.174 18.9648L116.408 19.1211C116.454 19.1536 116.503 19.1862 116.555 19.2188C116.613 19.2513 116.688 19.2969 116.779 19.3555C116.877 19.4076 116.936 19.4694 116.955 19.541C116.975 19.6061 116.984 19.6549 116.984 19.6875C116.984 19.8372 116.923 19.9479 116.799 20.0195C116.506 20.2539 116.271 20.5599 116.096 20.9375C117.222 21.8294 118.602 22.4219 120.236 22.7148L120.783 22.7832ZM118.41 25.3809C118.625 25.3809 118.84 25.3451 119.055 25.2734C119.784 24.987 120.295 24.4141 120.588 23.5547C119.572 23.431 118.632 23.1803 117.766 22.8027C117.036 22.4902 116.395 22.1322 115.842 21.7285C115.796 21.9368 115.773 22.1745 115.773 22.4414C115.773 23.1445 115.969 23.7598 116.359 24.2871C116.665 24.6842 117.014 24.9674 117.404 25.1367C117.795 25.2995 118.13 25.3809 118.41 25.3809Z" fill="black"/>
<path d="M133.8 16.39V14.07C133.12 14.07 132.57 13.8933 132.15 13.54C131.69 13.1533 131.46 12.6267 131.46 11.96C131.46 11.2867 131.69 10.7567 132.15 10.37C132.563 10.03 133.113 9.86 133.8 9.86V7.33H134.2V9.86C134.887 9.86 135.437 10.03 135.85 10.37C136.31 10.7567 136.54 11.2867 136.54 11.96C136.54 12.6267 136.31 13.1533 135.85 13.54C135.43 13.8933 134.88 14.07 134.2 14.07V16.39H133.8ZM133.8 13.69V10.24C133.24 10.2267 132.783 10.3667 132.43 10.66C132.063 10.9667 131.88 11.4 131.88 11.96C131.88 12.5267 132.063 12.96 132.43 13.26C132.783 13.5467 133.24 13.69 133.8 13.69ZM134.2 10.24V13.69C134.76 13.69 135.217 13.5467 135.57 13.26C135.937 12.96 136.12 12.5267 136.12 11.96C136.12 11.4 135.937 10.9667 135.57 10.66C135.217 10.3667 134.76 10.2267 134.2 10.24ZM138.066 10.45C138.479 10.0367 138.989 9.83 139.596 9.83C140.203 9.83 140.709 10.0367 141.116 10.45C141.529 10.8567 141.736 11.3633 141.736 11.97C141.736 12.5767 141.529 13.0867 141.116 13.5C140.709 13.9067 140.203 14.11 139.596 14.11C138.989 14.11 138.479 13.9067 138.066 13.5C137.659 13.0867 137.456 12.5767 137.456 11.97C137.456 11.3633 137.659 10.8567 138.066 10.45ZM138.366 13.22C138.699 13.56 139.109 13.73 139.596 13.73C140.083 13.73 140.489 13.56 140.816 13.22C141.149 12.88 141.316 12.4633 141.316 11.97C141.316 11.4767 141.149 11.06 140.816 10.72C140.489 10.38 140.083 10.21 139.596 10.21C139.109 10.21 138.699 10.38 138.366 10.72C138.039 11.06 137.876 11.4767 137.876 11.97C137.876 12.4633 138.039 12.88 138.366 13.22ZM143.691 14V10.3H142.271V9.92H145.511V10.3H144.091V14H143.691ZM146.66 10.45C147.073 10.0367 147.583 9.83 148.19 9.83C148.797 9.83 149.303 10.0367 149.71 10.45C150.123 10.8567 150.33 11.3633 150.33 11.97C150.33 12.5767 150.123 13.0867 149.71 13.5C149.303 13.9067 148.797 14.11 148.19 14.11C147.583 14.11 147.073 13.9067 146.66 13.5C146.253 13.0867 146.05 12.5767 146.05 11.97C146.05 11.3633 146.253 10.8567 146.66 10.45ZM146.96 13.22C147.293 13.56 147.703 13.73 148.19 13.73C148.677 13.73 149.083 13.56 149.41 13.22C149.743 12.88 149.91 12.4633 149.91 11.97C149.91 11.4767 149.743 11.06 149.41 10.72C149.083 10.38 148.677 10.21 148.19 10.21C147.703 10.21 147.293 10.38 146.96 10.72C146.633 11.06 146.47 11.4767 146.47 11.97C146.47 12.4633 146.633 12.88 146.96 13.22ZM151.505 14V9.92H153.705V10.3H151.905V14H151.505ZM154.903 13.27V16.39H154.503V9.92H154.903V10.63C155.297 10.0967 155.83 9.83 156.503 9.83C157.103 9.83 157.583 10.03 157.943 10.43C158.303 10.8233 158.483 11.3233 158.483 11.93C158.483 12.55 158.3 13.07 157.933 13.49C157.573 13.9033 157.09 14.11 156.483 14.11C156.177 14.11 155.9 14.05 155.653 13.93C155.407 13.8033 155.237 13.69 155.143 13.59C155.05 13.4833 154.97 13.3767 154.903 13.27ZM155.303 13.22C155.583 13.56 155.973 13.73 156.473 13.73C156.973 13.73 157.363 13.56 157.643 13.22C157.923 12.88 158.063 12.45 158.063 11.93C158.063 11.39 157.91 10.97 157.603 10.67C157.297 10.3633 156.923 10.21 156.483 10.21C156.05 10.21 155.673 10.36 155.353 10.66C155.04 10.96 154.883 11.3767 154.883 11.91C154.883 12.4367 155.023 12.8733 155.303 13.22ZM162.979 10.63V9.92H163.379V14H162.979V13.27C162.613 13.83 162.083 14.11 161.389 14.11C160.836 14.11 160.366 13.9133 159.979 13.52C159.593 13.1267 159.399 12.6067 159.399 11.96C159.399 11.3267 159.583 10.8133 159.949 10.42C160.316 10.0267 160.796 9.83 161.389 9.83C162.069 9.83 162.599 10.0967 162.979 10.63ZM161.409 10.21C160.976 10.21 160.603 10.3667 160.289 10.68C159.976 10.9867 159.819 11.4033 159.819 11.93C159.819 12.4167 159.963 12.84 160.249 13.2C160.536 13.5533 160.926 13.73 161.419 13.73C161.906 13.73 162.289 13.5567 162.569 13.21C162.856 12.8567 162.999 12.43 162.999 11.93C162.999 11.3767 162.836 10.9533 162.509 10.66C162.183 10.36 161.816 10.21 161.409 10.21ZM166.896 16.39V14.07C166.216 14.07 165.666 13.8933 165.246 13.54C164.786 13.1533 164.556 12.6267 164.556 11.96C164.556 11.2867 164.786 10.7567 165.246 10.37C165.659 10.03 166.209 9.86 166.896 9.86V7.33H167.296V9.86C167.982 9.86 168.532 10.03 168.946 10.37C169.406 10.7567 169.636 11.2867 169.636 11.96C169.636 12.6267 169.406 13.1533 168.946 13.54C168.526 13.8933 167.976 14.07 167.296 14.07V16.39H166.896ZM166.896 13.69V10.24C166.336 10.2267 165.879 10.3667 165.526 10.66C165.159 10.9667 164.976 11.4 164.976 11.96C164.976 12.5267 165.159 12.96 165.526 13.26C165.879 13.5467 166.336 13.69 166.896 13.69ZM167.296 10.24V13.69C167.856 13.69 168.312 13.5467 168.666 13.26C169.032 12.96 169.216 12.5267 169.216 11.96C169.216 11.4 169.032 10.9667 168.666 10.66C168.312 10.3667 167.856 10.2267 167.296 10.24ZM131.72 23.92H133.05C133.43 23.92 133.72 24 133.92 24.16C134.16 24.3533 134.28 24.6133 134.28 24.94C134.28 25.3133 134.13 25.5967 133.83 25.79C134.017 25.8167 134.183 25.8933 134.33 26.02C134.563 26.2267 134.68 26.5 134.68 26.84C134.68 27.22 134.543 27.5133 134.27 27.72C134.03 27.9067 133.697 28 133.27 28H131.72V23.92ZM132.12 25.7H133.05C133.297 25.7 133.49 25.6433 133.63 25.53C133.797 25.3967 133.88 25.2167 133.88 24.99C133.88 24.77 133.797 24.5933 133.63 24.46C133.497 24.3533 133.303 24.3 133.05 24.3H132.12V25.7ZM132.12 27.62H133.27C133.577 27.62 133.81 27.56 133.97 27.44C134.163 27.2933 134.26 27.09 134.26 26.83C134.26 26.59 134.17 26.4 133.99 26.26C133.83 26.14 133.59 26.08 133.27 26.08H132.12V27.62ZM138.195 28V23.92H140.395V24.3H138.595V28H138.195ZM141.213 27.97C141.146 27.8967 141.113 27.8067 141.113 27.7C141.113 27.5933 141.146 27.5067 141.213 27.44C141.286 27.3667 141.376 27.33 141.483 27.33C141.589 27.33 141.676 27.3667 141.743 27.44C141.816 27.5067 141.853 27.5933 141.853 27.7C141.853 27.8067 141.816 27.8967 141.743 27.97C141.676 28.0367 141.589 28.07 141.483 28.07C141.376 28.07 141.286 28.0367 141.213 27.97ZM146.368 22.24C147.035 21.5733 147.855 21.24 148.828 21.24C149.801 21.24 150.621 21.5733 151.288 22.24C151.955 22.9067 152.288 23.72 152.288 24.68C152.288 25.64 151.955 26.4533 151.288 27.12C150.621 27.78 149.801 28.11 148.828 28.11C147.855 28.11 147.035 27.78 146.368 27.12C145.701 26.4533 145.368 25.64 145.368 24.68C145.368 23.72 145.701 22.9067 146.368 22.24ZM146.688 26.84C147.261 27.42 147.975 27.71 148.828 27.71C149.681 27.71 150.395 27.42 150.968 26.84C151.541 26.2533 151.828 25.5333 151.828 24.68C151.828 23.82 151.541 23.1 150.968 22.52C150.395 21.9333 149.681 21.64 148.828 21.64C147.975 21.64 147.261 21.9333 146.688 22.52C146.115 23.1 145.828 23.82 145.828 24.68C145.828 25.5333 146.115 26.2533 146.688 26.84ZM153.946 27.27V30.39H153.546V23.92H153.946V24.63C154.34 24.0967 154.873 23.83 155.546 23.83C156.146 23.83 156.626 24.03 156.986 24.43C157.346 24.8233 157.526 25.3233 157.526 25.93C157.526 26.55 157.343 27.07 156.976 27.49C156.616 27.9033 156.133 28.11 155.526 28.11C155.22 28.11 154.943 28.05 154.696 27.93C154.45 27.8033 154.28 27.69 154.186 27.59C154.093 27.4833 154.013 27.3767 153.946 27.27ZM154.346 27.22C154.626 27.56 155.016 27.73 155.516 27.73C156.016 27.73 156.406 27.56 156.686 27.22C156.966 26.88 157.106 26.45 157.106 25.93C157.106 25.39 156.953 24.97 156.646 24.67C156.34 24.3633 155.966 24.21 155.526 24.21C155.093 24.21 154.716 24.36 154.396 24.66C154.083 24.96 153.926 25.3767 153.926 25.91C153.926 26.4367 154.066 26.8733 154.346 27.22ZM162.352 26.01H158.862C158.836 26.51 158.986 26.9233 159.312 27.25C159.639 27.57 160.029 27.73 160.482 27.73C160.802 27.73 161.086 27.6467 161.332 27.48C161.579 27.3067 161.769 27.08 161.902 26.8L162.242 27C162.089 27.2933 161.866 27.5533 161.572 27.78C161.279 28 160.906 28.11 160.452 28.11C159.832 28.11 159.342 27.91 158.982 27.51C158.622 27.1033 158.442 26.5933 158.442 25.98C158.442 25.3067 158.636 24.78 159.022 24.4C159.416 24.02 159.882 23.83 160.422 23.83C160.982 23.83 161.449 24.0333 161.822 24.44C162.196 24.8467 162.372 25.37 162.352 26.01ZM158.892 25.63H161.932C161.879 25.2167 161.712 24.8767 161.432 24.61C161.159 24.3433 160.822 24.21 160.422 24.21C160.016 24.21 159.672 24.3467 159.392 24.62C159.112 24.8867 158.946 25.2233 158.892 25.63ZM163.536 28V23.92H163.936V25.72H166.236V23.92H166.636V28H166.236V26.1H163.936V28H163.536ZM168.227 24.89H168.247C168.401 24.5367 168.641 24.2733 168.967 24.1C169.301 23.92 169.657 23.83 170.037 23.83C170.657 23.83 171.154 24.0267 171.527 24.42C171.907 24.8133 172.097 25.3267 172.097 25.96C172.097 26.6133 171.894 27.1367 171.487 27.53C171.081 27.9167 170.567 28.11 169.947 28.11C169.361 28.11 168.884 27.94 168.517 27.6C168.051 27.16 167.817 26.4333 167.817 25.42C167.817 23.78 168.244 22.6833 169.097 22.13C169.177 22.0767 169.264 22.03 169.357 21.99C169.451 21.9433 169.531 21.9067 169.597 21.88C169.671 21.8533 169.767 21.8267 169.887 21.8C170.007 21.7667 170.094 21.7467 170.147 21.74C170.201 21.7267 170.294 21.7067 170.427 21.68C170.567 21.6533 170.651 21.6367 170.677 21.63C171.171 21.5233 171.471 21.3467 171.577 21.1H172.077C172.004 21.2667 171.911 21.41 171.797 21.53C171.691 21.6433 171.557 21.7367 171.397 21.81C171.244 21.8767 171.114 21.9267 171.007 21.96C170.907 21.9867 170.771 22.02 170.597 22.06C169.937 22.1933 169.461 22.3767 169.167 22.61C168.861 22.8567 168.631 23.19 168.477 23.61C168.331 24.03 168.247 24.4567 168.227 24.89ZM169.947 27.73C170.521 27.73 170.951 27.5533 171.237 27.2C171.531 26.84 171.677 26.4267 171.677 25.96C171.677 25.4933 171.531 25.0867 171.237 24.74C170.944 24.3867 170.544 24.21 170.037 24.21C169.491 24.21 169.061 24.3867 168.747 24.74C168.434 25.0933 168.277 25.5 168.277 25.96C168.277 26.4067 168.407 26.8 168.667 27.14C168.967 27.5333 169.394 27.73 169.947 27.73ZM173.573 30.39L174.573 28.07L172.633 23.92H173.093L174.803 27.55L176.293 23.92H176.753L174.033 30.39H173.573ZM177.95 27.27V30.39H177.55V23.92H177.95V24.63C178.343 24.0967 178.877 23.83 179.55 23.83C180.15 23.83 180.63 24.03 180.99 24.43C181.35 24.8233 181.53 25.3233 181.53 25.93C181.53 26.55 181.347 27.07 180.98 27.49C180.62 27.9033 180.137 28.11 179.53 28.11C179.223 28.11 178.947 28.05 178.7 27.93C178.453 27.8033 178.283 27.69 178.19 27.59C178.097 27.4833 178.017 27.3767 177.95 27.27ZM178.35 27.22C178.63 27.56 179.02 27.73 179.52 27.73C180.02 27.73 180.41 27.56 180.69 27.22C180.97 26.88 181.11 26.45 181.11 25.93C181.11 25.39 180.957 24.97 180.65 24.67C180.343 24.3633 179.97 24.21 179.53 24.21C179.097 24.21 178.72 24.36 178.4 24.66C178.087 24.96 177.93 25.3767 177.93 25.91C177.93 26.4367 178.07 26.8733 178.35 27.22ZM182.706 28V23.92H184.906V24.3H183.106V28H182.706Z" fill="black" fill-opacity="0.4"/>
</svg>
