<svg width="126" height="48" viewBox="0 0 126 48" fill="none" xmlns="http://www.w3.org/2000/svg">
<path d="M0.712891 38.4785C0.621745 38.4785 0.537109 38.4492 0.458984 38.3906C0.38737 38.3385 0.341797 38.2637 0.322266 38.166C0.152995 37.2936 0.0553385 36.1966 0.0292969 34.875C0.00976562 33.5469 0 32.4336 0 31.5352C0 29.0872 0.0585938 25.9004 0.175781 21.9746C0.234375 19.7871 0.266927 18.1562 0.273438 17.082V17.0527C0.273438 16.9616 0.302734 16.8802 0.361328 16.8086C0.426432 16.7305 0.511068 16.6849 0.615234 16.6719C0.901693 16.6328 1.34115 16.6133 1.93359 16.6133C2.04427 16.6133 2.13542 16.6523 2.20703 16.7305C2.28516 16.8021 2.32747 16.8932 2.33398 17.0039C2.32747 18.0977 2.29492 19.722 2.23633 21.877C2.11914 25.946 2.06055 29.3021 2.06055 31.9453C2.06055 34.3737 2.14193 36.2389 2.30469 37.541C6.43229 37.1634 9.95443 36.6491 12.8711 35.998L12.9688 35.9883C13.0404 35.9883 13.1055 36.0078 13.1641 36.0469C13.2878 36.1185 13.3496 36.2292 13.3496 36.3789C13.3496 36.5677 13.2487 36.6947 13.0469 36.7598C10.026 37.4434 6.3737 37.9707 2.08984 38.3418C2.07031 38.3548 2.00846 38.3613 1.9043 38.3613L0.712891 38.4785ZM11.6074 25.4316C11.3405 25.4316 11.0638 25.3763 10.7773 25.2656C10.6276 25.1875 10.5527 25.0671 10.5527 24.9043C10.5527 24.8522 10.5625 24.7969 10.582 24.7383C10.6602 24.5885 10.7806 24.5137 10.9434 24.5137C10.9954 24.5137 11.0475 24.5267 11.0996 24.5527C11.2689 24.6178 11.4382 24.6504 11.6074 24.6504C11.7572 24.6504 11.9036 24.6243 12.0469 24.5723C12.4766 24.4095 12.7663 24.2044 12.916 23.957C13.0007 23.8268 13.1113 23.7617 13.248 23.7617C13.3132 23.7617 13.3783 23.778 13.4434 23.8105C13.5801 23.8887 13.6484 24.0026 13.6484 24.1523C13.6484 24.3542 13.4596 24.6016 13.082 24.8945C12.8542 25.0768 12.5905 25.2168 12.291 25.3145C12.0697 25.3926 11.8418 25.4316 11.6074 25.4316ZM12.4668 32.9414C12.2975 32.9414 12.138 32.9284 11.9883 32.9023C11.3112 32.7917 10.8262 32.362 10.5332 31.6133C10.4095 31.2552 10.3477 30.819 10.3477 30.3047C10.3477 30.0964 10.3574 29.875 10.377 29.6406C10.5332 27.8698 10.709 26.9225 10.9043 26.7988C11.0866 26.7012 11.3014 26.6491 11.5488 26.6426C12.0957 26.6426 12.418 26.6979 12.5156 26.8086C12.5807 26.8867 12.6133 26.9681 12.6133 27.0527L12.584 27.2773C12.3496 28.6641 12.2324 29.6471 12.2324 30.2266C12.2324 30.6237 12.2845 30.946 12.3887 31.1934C12.5905 31.623 12.7923 31.8509 12.9941 31.877C13.196 31.903 13.3294 31.916 13.3945 31.916C14.026 31.916 15.1328 31.3431 16.7148 30.1973C16.806 30.1322 16.8906 30.0736 16.9688 30.0215C17.0534 29.9629 17.1348 29.9336 17.2129 29.9336C17.3431 29.9336 17.4473 29.9922 17.5254 30.1094C17.5775 30.181 17.6035 30.2559 17.6035 30.334C17.6035 30.4642 17.5449 30.5716 17.4277 30.6562L16.9199 31.0078C15.7871 31.8151 14.8561 32.3424 14.127 32.5898C13.515 32.8242 12.9616 32.9414 12.4668 32.9414ZM18.791 34.2012C18.1986 34.2012 17.694 34.0124 17.2773 33.6348C16.8997 33.3027 16.6003 32.8503 16.3789 32.2773C15.9818 31.2031 15.7799 29.875 15.7734 28.293C15.7865 26.0794 15.985 23.8757 16.3691 21.6816C16.7533 19.4876 17.1081 17.8893 17.4336 16.8867C17.6419 16.2422 17.9479 15.5456 18.3516 14.7969C18.7617 14.0417 19.2467 13.3483 19.8066 12.7168C20.7897 11.6165 21.8444 11.0664 22.9707 11.0664C23.5697 11.0664 24.1426 11.3659 24.6895 11.9648C25.2884 12.668 25.5879 13.5632 25.5879 14.6504C25.5879 15.9655 25.2493 17.4954 24.5723 19.2402C23.9408 20.8483 23.179 22.4303 22.2871 23.9863C21.3952 25.5358 20.5358 26.8835 19.709 28.0293C18.8887 29.1751 18.2734 29.9401 17.8633 30.3242C17.8503 30.3307 17.8405 30.3405 17.834 30.3535C18.0684 32.222 18.6543 33.1562 19.5918 33.1562C19.7806 33.1562 19.9792 33.1204 20.1875 33.0488C21.1445 32.7624 22.4727 31.6719 24.1719 29.7773C24.2565 29.6927 24.3574 29.6504 24.4746 29.6504C24.5658 29.6504 24.6504 29.6862 24.7285 29.7578C24.8132 29.8294 24.8555 29.9238 24.8555 30.041C24.8555 30.1322 24.8229 30.2168 24.7578 30.2949C23.3125 31.9095 22.0983 32.974 21.1152 33.4883C20.8874 33.612 20.627 33.7324 20.334 33.8496C20.0475 33.9603 19.7741 34.0482 19.5137 34.1133C19.2598 34.1719 19.0189 34.2012 18.791 34.2012ZM17.7461 29.3184C18.5143 28.4395 19.5072 27.0332 20.7246 25.0996C21.9421 23.1595 22.9805 21.112 23.8398 18.957C24.3737 17.5833 24.6699 16.571 24.7285 15.9199C24.7871 15.2624 24.8164 14.8555 24.8164 14.6992C24.8164 13.7878 24.5788 13.0521 24.1035 12.4922C23.7129 12.069 23.3255 11.8574 22.9414 11.8574C22.7135 11.8574 22.4922 11.929 22.2773 12.0723C21.4831 12.5866 20.7311 13.6608 20.0215 15.2949C19.7415 15.9395 19.5169 16.5254 19.3477 17.0527C19.1263 17.7298 18.8757 18.7617 18.5957 20.1484C18.3223 21.5352 18.1074 22.9447 17.9512 24.377C17.7949 25.8027 17.7168 27.0658 17.7168 28.166C17.7168 28.5566 17.7266 28.9408 17.7461 29.3184ZM24.2363 25.4316C23.9694 25.4316 23.6927 25.3763 23.4062 25.2656C23.2565 25.1875 23.1816 25.0671 23.1816 24.9043C23.1816 24.8522 23.1914 24.7969 23.2109 24.7383C23.2891 24.5885 23.4095 24.5137 23.5723 24.5137C23.6243 24.5137 23.6764 24.5267 23.7285 24.5527C23.8978 24.6178 24.0671 24.6504 24.2363 24.6504C24.3861 24.6504 24.5326 24.6243 24.6758 24.5723C25.1055 24.4095 25.3952 24.2044 25.5449 23.957C25.6296 23.8268 25.7402 23.7617 25.877 23.7617C25.9421 23.7617 26.0072 23.778 26.0723 23.8105C26.209 23.8887 26.2773 24.0026 26.2773 24.1523C26.2773 24.3542 26.0885 24.6016 25.7109 24.8945C25.4831 25.0768 25.2194 25.2168 24.9199 25.3145C24.6986 25.3926 24.4707 25.4316 24.2363 25.4316ZM25.0957 32.9414C24.9264 32.9414 24.7669 32.9284 24.6172 32.9023C23.9401 32.7917 23.4551 32.362 23.1621 31.6133C23.0384 31.2552 22.9766 30.819 22.9766 30.3047C22.9766 30.0964 22.9863 29.875 23.0059 29.6406C23.1621 27.8698 23.3379 26.9225 23.5332 26.7988C23.7155 26.7012 23.9303 26.6491 24.1777 26.6426C24.7246 26.6426 25.0469 26.6979 25.1445 26.8086C25.2096 26.8867 25.2422 26.9681 25.2422 27.0527L25.2129 27.2773C24.9785 28.6641 24.8613 29.6471 24.8613 30.2266C24.8613 30.6237 24.9134 30.946 25.0176 31.1934C25.2194 31.623 25.4212 31.8509 25.623 31.877C25.8249 31.903 25.9583 31.916 26.0234 31.916C26.6549 31.916 27.7617 31.3431 29.3438 30.1973C29.4349 30.1322 29.5195 30.0736 29.5977 30.0215C29.6823 29.9629 29.7637 29.9336 29.8418 29.9336C29.972 29.9336 30.0762 29.9922 30.1543 30.1094C30.2064 30.181 30.2324 30.2559 30.2324 30.334C30.2324 30.4642 30.1738 30.5716 30.0566 30.6562L29.5488 31.0078C28.416 31.8151 27.485 32.3424 26.7559 32.5898C26.1439 32.8242 25.5905 32.9414 25.0957 32.9414ZM30.4922 47.5215C29.7565 47.5215 29.1934 47.1829 28.8027 46.5059C28.5358 46.0566 28.4023 45.4447 28.4023 44.6699C28.4023 43.6868 28.666 42.4922 29.1934 41.0859C29.1999 41.0794 29.2031 41.0697 29.2031 41.0566C30.5443 37.86 32.1328 35.3438 33.9688 33.5078L34.4375 29.3184C33.194 31.4863 32.1751 32.7819 31.3809 33.2051C31.0749 33.3809 30.7266 33.4688 30.3359 33.4688C30.2188 33.4688 30.1081 33.459 30.0039 33.4395C29.4635 33.3158 29.0664 33.0033 28.8125 32.502C28.5651 31.9941 28.4414 31.3984 28.4414 30.7148C28.4414 29.5755 28.666 28.5111 29.1152 27.5215C29.2194 27.3457 29.4277 27.2578 29.7402 27.2578C29.916 27.2578 30.082 27.2643 30.2383 27.2773C30.4857 27.3034 30.6452 27.3327 30.7168 27.3652C30.8535 27.4499 30.9219 27.5638 30.9219 27.707C30.9219 27.7656 30.9089 27.8275 30.8828 27.8926C30.401 28.8105 30.1602 29.8587 30.1602 31.0371C30.1602 31.8704 30.2871 32.388 30.541 32.5898C30.5736 32.6159 30.6159 32.6289 30.668 32.6289C31.0716 32.6289 31.6738 32.0755 32.4746 30.9688C33.0801 30.1354 33.8092 28.8952 34.6621 27.248C34.7272 27.1113 34.8379 27.0332 34.9941 27.0137C35.1764 26.9941 35.3555 26.9844 35.5312 26.9844C35.7005 26.9844 35.8503 26.9876 35.9805 26.9941C36.1107 26.9941 36.2083 27.0365 36.2734 27.1211C36.3451 27.1992 36.3809 27.2904 36.3809 27.3945C36.3809 27.5573 36.2246 29.0384 35.9121 31.8379C36.9928 31.0632 38.1224 30.4382 39.3008 29.9629C39.3464 29.9434 39.3919 29.9336 39.4375 29.9336C39.6133 29.9336 39.7402 30.015 39.8184 30.1777C39.8314 30.2233 39.8379 30.2721 39.8379 30.3242C39.8379 30.5 39.7565 30.6237 39.5938 30.6953C38.2591 31.2292 36.9928 31.9681 35.7949 32.9121C35.3717 36.5645 35.0885 38.9473 34.9453 40.0605C34.8086 41.1543 34.7044 41.9095 34.6328 42.3262C34.3789 43.6283 33.9785 44.6895 33.4316 45.5098C32.8848 46.3301 32.2956 46.8997 31.6641 47.2188C31.2539 47.4206 30.8633 47.5215 30.4922 47.5215ZM30.0723 46.5449C30.1309 46.5449 30.1927 46.5352 30.2578 46.5156C30.7396 46.3659 31.2311 45.9167 31.7324 45.168C32.2663 44.4193 32.6569 43.4102 32.9043 42.1406C33.041 41.2878 33.2917 39.3216 33.6562 36.2422C33.7148 35.7669 33.7702 35.2884 33.8223 34.8066C32.3704 36.4342 31.0716 38.6185 29.9258 41.3594C29.4831 42.5508 29.2454 43.3743 29.2129 43.8301C29.1868 44.2858 29.1738 44.5723 29.1738 44.6895C29.1738 45.3014 29.278 45.7799 29.4863 46.125C29.6556 46.4049 29.8509 46.5449 30.0723 46.5449ZM40.459 32.1992C40.6283 32.1992 40.8203 32.1374 41.0352 32.0137C42.1745 31.3952 43.5775 30.015 45.2441 27.873C44.1764 27.1309 43.2357 26.7305 42.4219 26.6719C41.9271 26.6849 41.4909 26.8867 41.1133 27.2773C40.7357 27.6615 40.4362 28.1367 40.2148 28.7031C39.9349 29.4128 39.7949 30.1029 39.7949 30.7734C39.7949 31.0339 39.821 31.2715 39.873 31.4863C39.9707 31.89 40.0781 32.1113 40.1953 32.1504C40.319 32.1829 40.4069 32.1992 40.459 32.1992ZM39.7559 33.127C39.3522 33.127 39.0137 33.0228 38.7402 32.8145C38.1543 32.3717 37.8613 31.6523 37.8613 30.6562C37.8613 29.5365 38.2324 28.4688 38.9746 27.4531C39.4043 26.8867 39.8926 26.4798 40.4395 26.2324C40.9863 25.9785 41.5299 25.8516 42.0703 25.8516C42.3242 25.8516 42.5846 25.8743 42.8516 25.9199C43.7044 26.0566 44.6582 26.4993 45.7129 27.248L45.9473 26.9355C46.0579 26.7858 46.2858 26.7109 46.6309 26.7109C47.1712 26.7109 47.4902 26.7728 47.5879 26.8965C47.653 26.9746 47.6855 27.0625 47.6855 27.1602C47.6855 27.1927 47.679 27.2285 47.666 27.2676C47.4512 28.1139 47.3438 28.8724 47.3438 29.543C47.3438 30.0182 47.3958 30.4414 47.5 30.8125C47.6042 31.1836 47.7311 31.457 47.8809 31.6328C48.0371 31.8021 48.1966 31.8867 48.3594 31.8867C48.4831 31.8867 48.6198 31.8509 48.7695 31.7793C49.3945 31.4733 50.127 30.8971 50.9668 30.0508C51.0514 29.9792 51.1458 29.9401 51.25 29.9336C51.3542 29.9336 51.4453 29.9727 51.5234 30.0508C51.6016 30.1289 51.6406 30.2201 51.6406 30.3242C51.6406 30.4284 51.6016 30.5228 51.5234 30.6074C50.4102 31.7142 49.4466 32.4108 48.6328 32.6973L48.5938 32.707C48.2747 32.8242 47.959 32.8828 47.6465 32.8828C47.2493 32.8828 46.901 32.7786 46.6016 32.5703C45.8659 32.0755 45.498 31.125 45.498 29.7188C45.498 29.4062 45.5176 29.0775 45.5566 28.7324C44.4173 30.1387 43.4049 31.1868 42.5195 31.877C41.6406 32.5605 40.9993 32.9414 40.5957 33.0195C40.1921 33.0911 39.9121 33.127 39.7559 33.127ZM66.4023 32.9805C65.8815 32.9805 65.4421 32.8503 65.084 32.5898C64.5697 32.2188 64.3125 31.597 64.3125 30.7246L64.3223 30.373C64.3418 30.1387 64.3516 29.9141 64.3516 29.6992C64.3516 28.612 64.1921 27.7852 63.873 27.2188C63.7298 26.9844 63.5508 26.8672 63.3359 26.8672C63.1862 26.8672 63.0202 26.9193 62.8379 27.0234C62.0827 27.4727 61.1549 28.5046 60.0547 30.1191C59.5794 30.8223 59.2572 31.3138 59.0879 31.5938C59.0293 31.6914 58.9349 31.7533 58.8047 31.7793C58.5703 31.8053 58.3815 31.8184 58.2383 31.8184C58.0951 31.8184 57.9355 31.8053 57.7598 31.7793C57.5775 31.7728 57.457 31.7272 57.3984 31.6426C57.3464 31.5514 57.3203 31.4668 57.3203 31.3887V31.3105C57.4701 30.5033 57.5449 29.7122 57.5449 28.9375C57.5449 27.1992 57.265 25.998 56.7051 25.334C56.6204 25.2493 56.5228 25.207 56.4121 25.207C56.2233 25.207 55.9987 25.3242 55.7383 25.5586C55.0026 26.2031 54.0781 27.4629 52.9648 29.3379C52.3333 30.4121 51.7539 31.4473 51.2266 32.4434V32.4531C51.194 32.5247 51.1354 32.5801 51.0508 32.6191C51.0312 32.6322 51.015 32.6387 51.002 32.6387C50.9954 32.6387 50.9857 32.6419 50.9727 32.6484L50.9336 32.6582C50.7708 32.6842 50.6081 32.6973 50.4453 32.6973C50.2435 32.6973 50.0254 32.6842 49.791 32.6582H49.7812C49.6706 32.6387 49.5859 32.5931 49.5273 32.5215C49.4688 32.4434 49.4395 32.362 49.4395 32.2773C49.4395 32.2188 49.5143 31.6589 49.6641 30.5977L49.6738 30.5586C49.9603 28.6576 50.1263 27.0625 50.1719 25.7734V25.7637C50.1719 25.4512 50.3867 25.2949 50.8164 25.2949H51.2754C51.3796 25.3014 51.4902 25.3047 51.6074 25.3047C51.7311 25.3047 51.8288 25.3438 51.9004 25.4219C51.972 25.4935 52.0078 25.5879 52.0078 25.7051C51.9753 26.9746 51.8288 28.4492 51.5684 30.1289C53.2415 27.1536 54.6641 25.3047 55.8359 24.582C55.9922 24.4844 56.1452 24.403 56.2949 24.3379L56.3242 24.3281C56.5977 24.2174 56.8581 24.1621 57.1055 24.1621C57.3203 24.1621 57.5254 24.2077 57.7207 24.2988C58.2285 24.5397 58.6126 24.9987 58.873 25.6758C59.2116 26.5872 59.3809 27.6419 59.3809 28.8398C59.3809 29.1589 59.3678 29.4844 59.3418 29.8164C60.7611 27.8633 61.9362 26.6491 62.8672 26.1738C63.3099 25.9395 63.7135 25.8223 64.0781 25.8223C64.2409 25.8223 64.3971 25.8483 64.5469 25.9004C65.0286 26.0632 65.3997 26.4082 65.6602 26.9355C66.0117 27.6777 66.1875 28.5957 66.1875 29.6895C66.1875 29.9238 66.1777 30.168 66.1582 30.4219L66.1484 30.7832C66.1484 31.5449 66.36 31.9714 66.7832 32.0625C66.8613 32.082 66.946 32.0918 67.0371 32.0918C67.2454 32.0918 67.4831 32.043 67.75 31.9453C68.6354 31.6198 69.5957 30.985 70.6309 30.041C70.7155 29.9694 70.8099 29.9336 70.9141 29.9336C71.0182 29.9401 71.1061 29.9824 71.1777 30.0605C71.2493 30.1387 71.2852 30.2266 71.2852 30.3242C71.2852 30.4349 71.2428 30.5326 71.1582 30.6172C70.0514 31.6328 69 32.3229 68.0039 32.6875C67.457 32.8828 66.9232 32.9805 66.4023 32.9805ZM73.3516 31.9648C73.013 31.9648 72.6647 31.9583 72.3066 31.9453C71.8835 31.9388 71.3333 31.9355 70.6562 31.9355C70.513 31.9355 70.3926 31.89 70.2949 31.7988C70.2038 31.7077 70.1549 31.5938 70.1484 31.457C70.1484 31.3138 70.1908 31.1966 70.2754 31.1055C70.3665 31.0078 70.4837 30.9557 70.627 30.9492C70.8223 30.9427 71.0273 30.9395 71.2422 30.9395C71.9974 30.9395 72.7852 30.959 73.6055 30.998C74.0612 31.0176 74.4648 31.0273 74.8164 31.0273C75.0117 31.0273 75.1159 31.0143 75.1289 30.9883C75.1484 30.8516 75.1973 30.7669 75.2754 30.7344C75.3535 30.7018 75.4349 30.6855 75.5195 30.6855C75.7214 30.6855 75.8711 30.7474 75.9688 30.8711C76.0404 30.9688 76.0762 31.0957 76.0762 31.252C76.0241 31.4993 75.8092 31.6751 75.4316 31.7793C75.0605 31.8835 74.6797 31.9421 74.2891 31.9551C73.8984 31.9616 73.5859 31.9648 73.3516 31.9648ZM76.1016 46.2715C75.9909 46.2715 75.8965 46.2357 75.8184 46.1641C75.7337 46.0924 75.6914 45.9883 75.6914 45.8516L76.5508 25.5195C76.5573 25.4154 76.5964 25.3275 76.668 25.2559C76.7656 25.1582 77.1953 25.1094 77.957 25.1094C78.0677 25.1159 78.1589 25.1582 78.2305 25.2363C78.3021 25.3079 78.3379 25.3991 78.3379 25.5098L78.2598 27.4238C78.9499 26.5254 79.8092 25.9883 80.8379 25.8125C81.0332 25.7799 81.2253 25.7637 81.4141 25.7637C82.3906 25.7637 83.097 26.1217 83.5332 26.8379L83.5625 26.8867C83.8099 27.349 83.9336 27.847 83.9336 28.3809C83.9336 28.9408 83.8132 29.5299 83.5723 30.1484C84.321 30.0247 85.1706 29.9564 86.1211 29.9434C86.2318 29.9434 86.3229 29.9792 86.3945 30.0508C86.4727 30.1224 86.5117 30.2135 86.5117 30.3242C86.5117 30.4349 86.4759 30.5293 86.4043 30.6074C86.3327 30.679 86.2415 30.7181 86.1309 30.7246C84.9915 30.7441 84.0085 30.8385 83.1816 31.0078C82.4264 32.3424 81.5996 33.2897 80.7012 33.8496L80.6328 33.8887C80.1576 34.1296 79.7572 34.25 79.4316 34.25C79.2819 34.25 79.1452 34.224 79.0215 34.1719C78.6634 34.0091 78.4844 33.7357 78.4844 33.3516C78.4844 32.9609 78.6829 32.5443 79.0801 32.1016C79.5293 31.5807 80.3301 31.1022 81.4824 30.666L81.541 30.5488C81.8405 29.9824 82.0163 29.5169 82.0684 29.1523C82.127 28.7812 82.1562 28.5241 82.1562 28.3809C82.1562 27.9837 82.0618 27.6094 81.873 27.2578C81.7559 27.0625 81.5996 26.9193 81.4043 26.8281C81.1764 26.7174 80.9681 26.6621 80.7793 26.6621C80.5384 26.6621 80.2422 26.7728 79.8906 26.9941C79.0703 27.4694 78.4974 28.2539 78.1719 29.3477L77.4785 45.8613C77.4785 45.9655 77.4427 46.0534 77.3711 46.125C77.306 46.2031 77.2116 46.2454 77.0879 46.252C76.9707 46.265 76.847 46.2715 76.7168 46.2715H76.1016ZM79.4219 33.2832C79.6042 33.2832 79.8809 33.0879 80.252 32.6973C80.4928 32.4499 80.7012 32.1569 80.877 31.8184C80.6361 31.903 80.4049 32.0234 80.1836 32.1797C79.7018 32.5247 79.4089 32.8535 79.3047 33.166C79.3112 33.2441 79.3503 33.2832 79.4219 33.2832ZM85.2773 34.7188C84.9258 34.7188 84.75 34.5853 84.75 34.3184C84.8216 31.623 85.0137 28.6576 85.3262 25.4219C85.7754 20.6107 86.4818 16.7402 87.4453 13.8105C87.9596 12.4043 88.7344 11.2422 89.7695 10.3242C90.9219 9.30208 92.0579 8.79102 93.1777 8.79102C93.653 8.79102 94.0729 8.95703 94.4375 9.28906C94.9323 9.71875 95.248 10.4805 95.3848 11.5742C95.3978 11.6914 95.4043 11.8151 95.4043 11.9453C95.4043 13.2344 94.7435 15.028 93.4219 17.3262C91.8659 20.015 89.7826 22.9186 87.1719 26.0371L87.1426 26.0664C87.0645 26.9583 86.9961 27.8145 86.9375 28.6348C87.8294 27.1439 88.5879 26.0762 89.2129 25.4316L89.252 25.4023C89.4212 25.2135 89.5807 25.0573 89.7305 24.9336C89.8867 24.8034 90.0853 24.6862 90.3262 24.582C90.515 24.5039 90.6875 24.4648 90.8438 24.4648C91.0065 24.4648 91.153 24.5039 91.2832 24.582C91.7064 24.849 92.0091 25.3568 92.1914 26.1055C92.3802 26.8542 92.5267 27.6745 92.6309 28.5664C92.7025 29.1393 92.7806 29.6764 92.8652 30.1777C92.9564 30.6725 93.0736 31.0664 93.2168 31.3594C93.4251 31.7565 93.6335 31.9974 93.8418 32.082C94.0501 32.1667 94.2324 32.209 94.3887 32.209C94.8444 32.209 95.4759 31.9258 96.2832 31.3594C96.7975 30.9948 97.3607 30.5521 97.9727 30.0312C98.0443 29.9727 98.1224 29.9434 98.207 29.9434C98.3372 29.9434 98.4447 29.9889 98.5293 30.0801C98.5879 30.1582 98.6172 30.2428 98.6172 30.334C98.6172 30.4447 98.5716 30.5423 98.4805 30.627C97.7318 31.265 97.0417 31.7923 96.4102 32.209C95.7266 32.6517 94.9844 32.9707 94.1836 33.166C93.9102 33.2246 93.653 33.2539 93.4121 33.2539C92.123 33.2539 91.319 32.375 91 30.6172C90.8372 29.7253 90.7298 28.957 90.6777 28.3125C90.5866 27.056 90.4401 26.3105 90.2383 26.0762C90.1276 25.946 90.0332 25.8809 89.9551 25.8809C89.5514 25.8809 88.5065 27.3913 86.8203 30.4121C86.7292 32.1243 86.6738 33.3613 86.6543 34.123V34.1621C86.6543 34.3704 86.5404 34.5137 86.3125 34.5918C86.0326 34.6764 85.6875 34.7188 85.2773 34.7188ZM87.2793 24.6699C89.4408 22.0267 91.2637 19.4486 92.748 16.9355C93.998 14.7741 94.623 13.1172 94.623 11.9648C94.623 11.8607 94.6165 11.7598 94.6035 11.6621C94.4277 10.2689 93.9427 9.57227 93.1484 9.57227C92.7839 9.57227 92.3802 9.71875 91.9375 10.0117C91.4232 10.3568 90.9349 10.8548 90.4727 11.5059C89.4831 12.8926 88.6823 15.3665 88.0703 18.9277C87.7383 20.8288 87.4746 22.7428 87.2793 24.6699ZM100.693 34.2305C99.541 34.1914 98.6458 33.9115 98.0078 33.3906C97.0964 32.6354 96.6406 31.6426 96.6406 30.4121C96.6406 30.0605 96.6829 29.7122 96.7676 29.3672C96.8652 28.9831 97.0085 28.6283 97.1973 28.3027C96.9499 27.8535 96.8262 27.3848 96.8262 26.8965C96.8262 26.3236 96.9661 25.806 97.2461 25.3438C97.526 24.875 97.9264 24.5169 98.4473 24.2695C98.8118 24.0938 99.2253 24.0059 99.6875 24.0059C100.111 24.0059 100.573 24.0807 101.074 24.2305L101.113 24.2402C101.888 24.5527 102.529 25.0508 103.037 25.7344C103.551 26.418 103.919 27.1927 104.141 28.0586C104.303 28.6771 104.385 29.2891 104.385 29.8945C104.378 30.207 104.355 30.5195 104.316 30.832H104.58C105.758 30.832 106.943 30.5488 108.135 29.9824C108.2 29.9499 108.265 29.9336 108.33 29.9336C108.473 29.9336 108.584 30.0085 108.662 30.1582C108.695 30.2168 108.711 30.2721 108.711 30.3242C108.711 30.487 108.636 30.6074 108.486 30.6855C107.158 31.3105 105.846 31.623 104.551 31.623L104.141 31.6133C103.991 32.1146 103.763 32.5671 103.457 32.9707C103.158 33.3678 102.783 33.6771 102.334 33.8984C101.885 34.1198 101.37 34.2305 100.791 34.2305H100.693ZM103.525 30.7832C103.577 30.5488 103.604 30.2493 103.604 29.8848C103.604 29.3444 103.529 28.8008 103.379 28.2539C103.19 27.5052 102.881 26.8379 102.451 26.252C102.021 25.6595 101.484 25.2331 100.84 24.9727C100.423 24.849 100.046 24.7871 99.707 24.7871C99.3555 24.7871 99.043 24.8555 98.7695 24.9922C98.3984 25.1615 98.112 25.4154 97.9102 25.7539C97.7083 26.0859 97.6074 26.457 97.6074 26.8672C97.6074 27.1211 97.6497 27.3685 97.7344 27.6094C98.0859 27.2904 98.3268 27.0853 98.457 26.9941C98.5482 26.9355 98.6328 26.9062 98.7109 26.9062C98.7826 26.9062 98.8509 26.9258 98.916 26.9648L99.1504 27.1211C99.196 27.1536 99.2448 27.1862 99.2969 27.2188C99.3555 27.2513 99.4303 27.2969 99.5215 27.3555C99.6191 27.4076 99.6777 27.4694 99.6973 27.541C99.7168 27.6061 99.7266 27.6549 99.7266 27.6875C99.7266 27.8372 99.6647 27.9479 99.541 28.0195C99.248 28.2539 99.0137 28.5599 98.8379 28.9375C99.9642 29.8294 101.344 30.4219 102.979 30.7148L103.525 30.7832ZM101.152 33.3809C101.367 33.3809 101.582 33.3451 101.797 33.2734C102.526 32.987 103.037 32.4141 103.33 31.5547C102.314 31.431 101.374 31.1803 100.508 30.8027C99.7786 30.4902 99.1374 30.1322 98.584 29.7285C98.5384 29.9368 98.5156 30.1745 98.5156 30.4414C98.5156 31.1445 98.7109 31.7598 99.1016 32.2871C99.4076 32.6842 99.7559 32.9674 100.146 33.1367C100.537 33.2995 100.872 33.3809 101.152 33.3809ZM110.523 34.4258C109.69 34.4258 108.964 34.1523 108.346 33.6055C107.727 33.0521 107.324 32.1732 107.135 30.9688C106.998 29.9857 106.93 28.9603 106.93 27.8926C106.93 26.0241 107.105 24.0189 107.457 21.877C107.757 20.0801 108.115 18.3906 108.531 16.8086L107.818 16.4766C106.692 15.9232 105.608 15.4674 104.566 15.1094C103.518 14.7513 102.509 14.5723 101.539 14.5723C101.305 14.5723 101.067 14.582 100.826 14.6016C99.6087 14.6992 98.349 15.2103 97.0469 16.1348C96.9753 16.1868 96.9004 16.2129 96.8223 16.2129C96.6921 16.2129 96.5846 16.1576 96.5 16.0469C96.4479 15.9753 96.4219 15.9036 96.4219 15.832C96.4219 15.6953 96.4772 15.5846 96.5879 15.5C98.0072 14.4844 99.1172 13.9408 99.918 13.8691C100.712 13.7975 101.249 13.7617 101.529 13.7617C102.545 13.7617 103.538 13.9277 104.508 14.2598C105.738 14.6764 106.952 15.1777 108.15 15.7637L108.736 16.0371C109.277 14.1165 109.785 12.5931 110.26 11.4668C110.318 11.2975 110.393 11.2064 110.484 11.1934C110.576 11.1803 110.644 11.1738 110.689 11.1738C110.82 11.1738 111.015 11.2161 111.275 11.3008L111.822 11.457C112.031 11.5286 112.135 11.6556 112.135 11.8379C112.135 11.8835 112.128 11.929 112.115 11.9746C111.692 13.1921 111.194 14.8164 110.621 16.8477C111.598 17.2448 112.369 17.4694 112.936 17.5215C113.508 17.5736 113.873 17.5996 114.029 17.5996C114.856 17.5996 115.689 17.4141 116.529 17.043C116.581 17.0169 116.637 17.0039 116.695 17.0039C116.858 17.0039 116.975 17.082 117.047 17.2383C117.066 17.2904 117.076 17.3424 117.076 17.3945C117.076 17.5573 117.001 17.6777 116.852 17.7559C115.901 18.179 114.967 18.3906 114.049 18.3906C113.893 18.3906 113.736 18.3841 113.58 18.3711C112.519 18.2865 111.464 18.0326 110.416 17.6094C109.628 20.6432 109.14 23.1953 108.951 25.2656C108.827 26.5872 108.766 27.6257 108.766 28.3809C108.766 30.8483 109.059 32.4173 109.645 33.0879C109.951 33.446 110.351 33.625 110.846 33.625C111.243 33.612 111.666 33.4818 112.115 33.2344C113.15 32.668 114.14 31.6328 115.084 30.1289C115.169 30.0052 115.283 29.9434 115.426 29.9434C115.497 29.9434 115.566 29.9596 115.631 29.9922C115.755 30.0768 115.816 30.1875 115.816 30.3242C115.816 30.3958 115.797 30.4674 115.758 30.5391C114.111 33.1302 112.366 34.4258 110.523 34.4258ZM117.951 34.2305C116.799 34.1914 115.904 33.9115 115.266 33.3906C114.354 32.6354 113.898 31.6426 113.898 30.4121C113.898 30.0605 113.941 29.7122 114.025 29.3672C114.123 28.9831 114.266 28.6283 114.455 28.3027C114.208 27.8535 114.084 27.3848 114.084 26.8965C114.084 26.3236 114.224 25.806 114.504 25.3438C114.784 24.875 115.184 24.5169 115.705 24.2695C116.07 24.0938 116.483 24.0059 116.945 24.0059C117.368 24.0059 117.831 24.0807 118.332 24.2305L118.371 24.2402C119.146 24.5527 119.787 25.0508 120.295 25.7344C120.809 26.418 121.177 27.1927 121.398 28.0586C121.561 28.6771 121.643 29.2891 121.643 29.8945C121.636 30.207 121.613 30.5195 121.574 30.832H121.838C123.016 30.832 124.201 30.5488 125.393 29.9824C125.458 29.9499 125.523 29.9336 125.588 29.9336C125.731 29.9336 125.842 30.0085 125.92 30.1582C125.952 30.2168 125.969 30.2721 125.969 30.3242C125.969 30.487 125.894 30.6074 125.744 30.6855C124.416 31.3105 123.104 31.623 121.809 31.623L121.398 31.6133C121.249 32.1146 121.021 32.5671 120.715 32.9707C120.415 33.3678 120.041 33.6771 119.592 33.8984C119.143 34.1198 118.628 34.2305 118.049 34.2305H117.951ZM120.783 30.7832C120.835 30.5488 120.861 30.2493 120.861 29.8848C120.861 29.3444 120.786 28.8008 120.637 28.2539C120.448 27.5052 120.139 26.8379 119.709 26.252C119.279 25.6595 118.742 25.2331 118.098 24.9727C117.681 24.849 117.303 24.7871 116.965 24.7871C116.613 24.7871 116.301 24.8555 116.027 24.9922C115.656 25.1615 115.37 25.4154 115.168 25.7539C114.966 26.0859 114.865 26.457 114.865 26.8672C114.865 27.1211 114.908 27.3685 114.992 27.6094C115.344 27.2904 115.585 27.0853 115.715 26.9941C115.806 26.9355 115.891 26.9062 115.969 26.9062C116.04 26.9062 116.109 26.9258 116.174 26.9648L116.408 27.1211C116.454 27.1536 116.503 27.1862 116.555 27.2188C116.613 27.2513 116.688 27.2969 116.779 27.3555C116.877 27.4076 116.936 27.4694 116.955 27.541C116.975 27.6061 116.984 27.6549 116.984 27.6875C116.984 27.8372 116.923 27.9479 116.799 28.0195C116.506 28.2539 116.271 28.5599 116.096 28.9375C117.222 29.8294 118.602 30.4219 120.236 30.7148L120.783 30.7832ZM118.41 33.3809C118.625 33.3809 118.84 33.3451 119.055 33.2734C119.784 32.987 120.295 32.4141 120.588 31.5547C119.572 31.431 118.632 31.1803 117.766 30.8027C117.036 30.4902 116.395 30.1322 115.842 29.7285C115.796 29.9368 115.773 30.1745 115.773 30.4414C115.773 31.1445 115.969 31.7598 116.359 32.2871C116.665 32.6842 117.014 32.9674 117.404 33.1367C117.795 33.2995 118.13 33.3809 118.41 33.3809Z" fill="white"/>
<path d="M2.8 10.39V8.07C2.12 8.07 1.57 7.89333 1.15 7.54C0.69 7.15333 0.46 6.62667 0.46 5.96C0.46 5.28667 0.69 4.75667 1.15 4.37C1.56333 4.03 2.11333 3.86 2.8 3.86V1.33H3.2V3.86C3.88667 3.86 4.43667 4.03 4.85 4.37C5.31 4.75667 5.54 5.28667 5.54 5.96C5.54 6.62667 5.31 7.15333 4.85 7.54C4.43 7.89333 3.88 8.07 3.2 8.07V10.39H2.8ZM2.8 7.69V4.24C2.24 4.22667 1.78333 4.36667 1.43 4.66C1.06333 4.96667 0.88 5.4 0.88 5.96C0.88 6.52667 1.06333 6.96 1.43 7.26C1.78333 7.54667 2.24 7.69 2.8 7.69ZM3.2 4.24V7.69C3.76 7.69 4.21667 7.54667 4.57 7.26C4.93667 6.96 5.12 6.52667 5.12 5.96C5.12 5.4 4.93667 4.96667 4.57 4.66C4.21667 4.36667 3.76 4.22667 3.2 4.24ZM8.46609 4.45C8.87943 4.03667 9.38943 3.83 9.99609 3.83C10.6028 3.83 11.1094 4.03667 11.5161 4.45C11.9294 4.85667 12.1361 5.36333 12.1361 5.97C12.1361 6.57667 11.9294 7.08667 11.5161 7.5C11.1094 7.90667 10.6028 8.11 9.99609 8.11C9.38943 8.11 8.87943 7.90667 8.46609 7.5C8.05943 7.08667 7.85609 6.57667 7.85609 5.97C7.85609 5.36333 8.05943 4.85667 8.46609 4.45ZM8.76609 7.22C9.09943 7.56 9.50943 7.73 9.99609 7.73C10.4828 7.73 10.8894 7.56 11.2161 7.22C11.5494 6.88 11.7161 6.46333 11.7161 5.97C11.7161 5.47667 11.5494 5.06 11.2161 4.72C10.8894 4.38 10.4828 4.21 9.99609 4.21C9.50943 4.21 9.09943 4.38 8.76609 4.72C8.43943 5.06 8.27609 5.47667 8.27609 5.97C8.27609 6.46333 8.43943 6.88 8.76609 7.22ZM15.4914 8V4.3H14.0714V3.92H17.3114V4.3H15.8914V8H15.4914ZM19.8598 4.45C20.2732 4.03667 20.7832 3.83 21.3898 3.83C21.9965 3.83 22.5032 4.03667 22.9098 4.45C23.3232 4.85667 23.5298 5.36333 23.5298 5.97C23.5298 6.57667 23.3232 7.08667 22.9098 7.5C22.5032 7.90667 21.9965 8.11 21.3898 8.11C20.7832 8.11 20.2732 7.90667 19.8598 7.5C19.4532 7.08667 19.2498 6.57667 19.2498 5.97C19.2498 5.36333 19.4532 4.85667 19.8598 4.45ZM20.1598 7.22C20.4932 7.56 20.9032 7.73 21.3898 7.73C21.8765 7.73 22.2832 7.56 22.6098 7.22C22.9432 6.88 23.1098 6.46333 23.1098 5.97C23.1098 5.47667 22.9432 5.06 22.6098 4.72C22.2832 4.38 21.8765 4.21 21.3898 4.21C20.9032 4.21 20.4932 4.38 20.1598 4.72C19.8332 5.06 19.6698 5.47667 19.6698 5.97C19.6698 6.46333 19.8332 6.88 20.1598 7.22ZM26.1052 8V3.92H28.3052V4.3H26.5052V8H26.1052ZM30.9032 7.27V10.39H30.5032V3.92H30.9032V4.63C31.2965 4.09667 31.8299 3.83 32.5032 3.83C33.1032 3.83 33.5832 4.03 33.9432 4.43C34.3032 4.82333 34.4832 5.32333 34.4832 5.93C34.4832 6.55 34.2999 7.07 33.9332 7.49C33.5732 7.90333 33.0899 8.11 32.4832 8.11C32.1765 8.11 31.8999 8.05 31.6532 7.93C31.4065 7.80333 31.2365 7.69 31.1432 7.59C31.0499 7.48333 30.9699 7.37667 30.9032 7.27ZM31.3032 7.22C31.5832 7.56 31.9732 7.73 32.4732 7.73C32.9732 7.73 33.3632 7.56 33.6432 7.22C33.9232 6.88 34.0632 6.45 34.0632 5.93C34.0632 5.39 33.9099 4.97 33.6032 4.67C33.2965 4.36333 32.9232 4.21 32.4832 4.21C32.0499 4.21 31.6732 4.36 31.3532 4.66C31.0399 4.96 30.8832 5.37667 30.8832 5.91C30.8832 6.43667 31.0232 6.87333 31.3032 7.22ZM40.3795 4.63V3.92H40.7795V8H40.3795V7.27C40.0128 7.83 39.4828 8.11 38.7895 8.11C38.2361 8.11 37.7661 7.91333 37.3795 7.52C36.9928 7.12667 36.7995 6.60667 36.7995 5.96C36.7995 5.32667 36.9828 4.81333 37.3495 4.42C37.7161 4.02667 38.1961 3.83 38.7895 3.83C39.4695 3.83 39.9995 4.09667 40.3795 4.63ZM38.8095 4.21C38.3761 4.21 38.0028 4.36667 37.6895 4.68C37.3761 4.98667 37.2195 5.40333 37.2195 5.93C37.2195 6.41667 37.3628 6.84 37.6495 7.2C37.9361 7.55333 38.3261 7.73 38.8195 7.73C39.3061 7.73 39.6895 7.55667 39.9695 7.21C40.2561 6.85667 40.3995 6.43 40.3995 5.93C40.3995 5.37667 40.2361 4.95333 39.9095 4.66C39.5828 4.36 39.2161 4.21 38.8095 4.21ZM45.6957 10.39V8.07C45.0157 8.07 44.4657 7.89333 44.0457 7.54C43.5857 7.15333 43.3557 6.62667 43.3557 5.96C43.3557 5.28667 43.5857 4.75667 44.0457 4.37C44.459 4.03 45.009 3.86 45.6957 3.86V1.33H46.0957V3.86C46.7824 3.86 47.3324 4.03 47.7457 4.37C48.2057 4.75667 48.4357 5.28667 48.4357 5.96C48.4357 6.62667 48.2057 7.15333 47.7457 7.54C47.3257 7.89333 46.7757 8.07 46.0957 8.07V10.39H45.6957ZM45.6957 7.69V4.24C45.1357 4.22667 44.679 4.36667 44.3257 4.66C43.959 4.96667 43.7757 5.4 43.7757 5.96C43.7757 6.52667 43.959 6.96 44.3257 7.26C44.679 7.54667 45.1357 7.69 45.6957 7.69ZM46.0957 4.24V7.69C46.6557 7.69 47.1124 7.54667 47.4657 7.26C47.8324 6.96 48.0157 6.52667 48.0157 5.96C48.0157 5.4 47.8324 4.96667 47.4657 4.66C47.1124 4.36667 46.6557 4.22667 46.0957 4.24ZM54.7458 3.92H56.0758C56.4558 3.92 56.7458 4 56.9458 4.16C57.1858 4.35333 57.3058 4.61333 57.3058 4.94C57.3058 5.31333 57.1558 5.59667 56.8558 5.79C57.0424 5.81667 57.2091 5.89333 57.3558 6.02C57.5891 6.22667 57.7058 6.5 57.7058 6.84C57.7058 7.22 57.5691 7.51333 57.2958 7.72C57.0558 7.90667 56.7224 8 56.2958 8H54.7458V3.92ZM55.1458 5.7H56.0758C56.3224 5.7 56.5158 5.64333 56.6558 5.53C56.8224 5.39667 56.9058 5.21667 56.9058 4.99C56.9058 4.77 56.8224 4.59333 56.6558 4.46C56.5224 4.35333 56.3291 4.3 56.0758 4.3H55.1458V5.7ZM55.1458 7.62H56.2958C56.6024 7.62 56.8358 7.56 56.9958 7.44C57.1891 7.29333 57.2858 7.09 57.2858 6.83C57.2858 6.59 57.1958 6.4 57.0158 6.26C56.8558 6.14 56.6158 6.08 56.2958 6.08H55.1458V7.62ZM64.0204 8V3.92H66.2204V4.3H64.4204V8H64.0204ZM68.4384 7.97C68.3718 7.89667 68.3384 7.80667 68.3384 7.7C68.3384 7.59333 68.3718 7.50667 68.4384 7.44C68.5118 7.36667 68.6018 7.33 68.7084 7.33C68.8151 7.33 68.9018 7.36667 68.9684 7.44C69.0418 7.50667 69.0784 7.59333 69.0784 7.7C69.0784 7.80667 69.0418 7.89667 68.9684 7.97C68.9018 8.03667 68.8151 8.07 68.7084 8.07C68.6018 8.07 68.5118 8.03667 68.4384 7.97ZM76.3939 2.24C77.0606 1.57333 77.8806 1.24 78.8539 1.24C79.8272 1.24 80.6472 1.57333 81.3139 2.24C81.9806 2.90667 82.3139 3.72 82.3139 4.68C82.3139 5.64 81.9806 6.45333 81.3139 7.12C80.6472 7.78 79.8272 8.11 78.8539 8.11C77.8806 8.11 77.0606 7.78 76.3939 7.12C75.7272 6.45333 75.3939 5.64 75.3939 4.68C75.3939 3.72 75.7272 2.90667 76.3939 2.24ZM76.7139 6.84C77.2872 7.42 78.0006 7.71 78.8539 7.71C79.7072 7.71 80.4206 7.42 80.9939 6.84C81.5672 6.25333 81.8539 5.53333 81.8539 4.68C81.8539 3.82 81.5672 3.1 80.9939 2.52C80.4206 1.93333 79.7072 1.64 78.8539 1.64C78.0006 1.64 77.2872 1.93333 76.7139 2.52C76.1406 3.1 75.8539 3.82 75.8539 4.68C75.8539 5.53333 76.1406 6.25333 76.7139 6.84ZM85.372 7.27V10.39H84.972V3.92H85.372V4.63C85.7653 4.09667 86.2986 3.83 86.972 3.83C87.572 3.83 88.052 4.03 88.412 4.43C88.772 4.82333 88.952 5.32333 88.952 5.93C88.952 6.55 88.7686 7.07 88.402 7.49C88.042 7.90333 87.5586 8.11 86.952 8.11C86.6453 8.11 86.3686 8.05 86.122 7.93C85.8753 7.80333 85.7053 7.69 85.612 7.59C85.5186 7.48333 85.4386 7.37667 85.372 7.27ZM85.772 7.22C86.052 7.56 86.442 7.73 86.942 7.73C87.442 7.73 87.832 7.56 88.112 7.22C88.392 6.88 88.532 6.45 88.532 5.93C88.532 5.39 88.3786 4.97 88.072 4.67C87.7653 4.36333 87.392 4.21 86.952 4.21C86.5186 4.21 86.142 4.36 85.822 4.66C85.5086 4.96 85.352 5.37667 85.352 5.91C85.352 6.43667 85.492 6.87333 85.772 7.22ZM95.1782 6.01H91.6882C91.6615 6.51 91.8115 6.92333 92.1382 7.25C92.4649 7.57 92.8549 7.73 93.3082 7.73C93.6282 7.73 93.9115 7.64667 94.1582 7.48C94.4049 7.30667 94.5949 7.08 94.7282 6.8L95.0682 7C94.9149 7.29333 94.6915 7.55333 94.3982 7.78C94.1049 8 93.7315 8.11 93.2782 8.11C92.6582 8.11 92.1682 7.91 91.8082 7.51C91.4482 7.10333 91.2682 6.59333 91.2682 5.98C91.2682 5.30667 91.4615 4.78 91.8482 4.4C92.2415 4.02 92.7082 3.83 93.2482 3.83C93.8082 3.83 94.2749 4.03333 94.6482 4.44C95.0215 4.84667 95.1982 5.37 95.1782 6.01ZM91.7182 5.63H94.7582C94.7049 5.21667 94.5382 4.87667 94.2582 4.61C93.9849 4.34333 93.6482 4.21 93.2482 4.21C92.8415 4.21 92.4982 4.34667 92.2182 4.62C91.9382 4.88667 91.7715 5.22333 91.7182 5.63ZM97.7622 8V3.92H98.1622V5.72H100.462V3.92H100.862V8H100.462V6.1H98.1622V8H97.7622ZM103.853 4.89H103.873C104.027 4.53667 104.267 4.27333 104.593 4.1C104.927 3.92 105.283 3.83 105.663 3.83C106.283 3.83 106.78 4.02667 107.153 4.42C107.533 4.81333 107.723 5.32667 107.723 5.96C107.723 6.61333 107.52 7.13667 107.113 7.53C106.707 7.91667 106.193 8.11 105.573 8.11C104.987 8.11 104.51 7.94 104.143 7.6C103.677 7.16 103.443 6.43333 103.443 5.42C103.443 3.78 103.87 2.68333 104.723 2.13C104.803 2.07667 104.89 2.03 104.983 1.99C105.077 1.94333 105.157 1.90667 105.223 1.88C105.297 1.85333 105.393 1.82667 105.513 1.8C105.633 1.76667 105.72 1.74667 105.773 1.74C105.827 1.72667 105.92 1.70667 106.053 1.68C106.193 1.65333 106.277 1.63667 106.303 1.63C106.797 1.52333 107.097 1.34667 107.203 1.1H107.703C107.63 1.26667 107.537 1.41 107.423 1.53C107.317 1.64333 107.183 1.73667 107.023 1.81C106.87 1.87667 106.74 1.92667 106.633 1.96C106.533 1.98667 106.397 2.02 106.223 2.06C105.563 2.19333 105.087 2.37667 104.793 2.61C104.487 2.85667 104.257 3.19 104.103 3.61C103.957 4.03 103.873 4.45667 103.853 4.89ZM105.573 7.73C106.147 7.73 106.577 7.55333 106.863 7.2C107.157 6.84 107.303 6.42667 107.303 5.96C107.303 5.49333 107.157 5.08667 106.863 4.74C106.57 4.38667 106.17 4.21 105.663 4.21C105.117 4.21 104.687 4.38667 104.373 4.74C104.06 5.09333 103.903 5.5 103.903 5.96C103.903 6.40667 104.033 6.8 104.293 7.14C104.593 7.53333 105.02 7.73 105.573 7.73ZM110.599 10.39L111.599 8.07L109.659 3.92H110.119L111.829 7.55L113.319 3.92H113.779L111.059 10.39H110.599ZM116.376 7.27V10.39H115.976V3.92H116.376V4.63C116.769 4.09667 117.303 3.83 117.976 3.83C118.576 3.83 119.056 4.03 119.416 4.43C119.776 4.82333 119.956 5.32333 119.956 5.93C119.956 6.55 119.773 7.07 119.406 7.49C119.046 7.90333 118.563 8.11 117.956 8.11C117.649 8.11 117.373 8.05 117.126 7.93C116.879 7.80333 116.709 7.69 116.616 7.59C116.523 7.48333 116.443 7.37667 116.376 7.27ZM116.776 7.22C117.056 7.56 117.446 7.73 117.946 7.73C118.446 7.73 118.836 7.56 119.116 7.22C119.396 6.88 119.536 6.45 119.536 5.93C119.536 5.39 119.383 4.97 119.076 4.67C118.769 4.36333 118.396 4.21 117.956 4.21C117.523 4.21 117.146 4.36 116.826 4.66C116.513 4.96 116.356 5.37667 116.356 5.91C116.356 6.43667 116.496 6.87333 116.776 7.22ZM122.532 8V3.92H124.732V4.3H122.932V8H122.532Z" fill="white" fill-opacity="0.6"/>
</svg>
