<svg width="22" height="22" viewBox="0 0 22 22" fill="none" xmlns="http://www.w3.org/2000/svg">
<path d="M17.9231 2.74725C17.7024 2.76331 17.4857 2.81508 17.2816 2.90056H17.2789C17.083 2.97825 16.1514 3.37012 14.7351 3.96412L9.66002 6.10156C6.01833 7.63469 2.43852 9.14444 2.43852 9.14444L2.48114 9.12794C2.48114 9.12794 2.23433 9.20906 1.97652 9.38575C1.81724 9.4871 1.68019 9.61971 1.57364 9.77556C1.44714 9.96119 1.34539 10.2451 1.38321 10.5387C1.44508 11.0351 1.76683 11.3328 1.99783 11.4971C2.23158 11.6634 2.45433 11.7411 2.45433 11.7411H2.45983L5.81689 12.8721C5.96746 13.3554 6.83989 16.2236 7.04958 16.8843C7.17333 17.2789 7.29364 17.5258 7.4442 17.7141C7.51708 17.8104 7.60233 17.8908 7.70477 17.9554C7.75802 17.9864 7.8148 18.0109 7.87389 18.0283L7.83952 18.0201C7.84983 18.0228 7.85808 18.0311 7.86564 18.0338C7.89314 18.0414 7.91171 18.0441 7.94677 18.0496C8.4782 18.2105 8.90514 17.8805 8.90514 17.8805L8.9292 17.8613L10.9113 16.0566L14.2333 18.6051L14.3089 18.6374C15.0012 18.9413 15.7025 18.7722 16.073 18.4738C16.4463 18.1734 16.5914 17.7891 16.5914 17.7891L16.6155 17.7272L19.1826 4.576C19.2555 4.2515 19.274 3.94762 19.1936 3.65269C19.1106 3.35419 18.9191 3.09747 18.6566 2.93287C18.4362 2.79889 18.1807 2.73422 17.9231 2.74725ZM17.8536 4.15662C17.8509 4.19994 17.8591 4.19512 17.8399 4.27831V4.28587L15.2968 17.3003C15.2858 17.3188 15.2673 17.3594 15.2164 17.3999C15.1628 17.4426 15.1201 17.4694 14.8967 17.3807L10.8336 14.2656L8.3792 16.5028L8.89483 13.2096L15.5333 7.02212C15.807 6.76775 15.7155 6.71412 15.7155 6.71412C15.7348 6.402 15.3023 6.62269 15.3023 6.62269L6.93133 11.8085L6.92858 11.7948L2.91633 10.4438V10.4411L2.90602 10.439C2.91305 10.4367 2.91994 10.4339 2.92664 10.4308L2.94864 10.4198L2.96996 10.4122C2.96996 10.4122 6.55252 8.90244 10.1942 7.36931C12.0175 6.60137 13.8545 5.82794 15.2673 5.23119C16.6801 4.63787 17.7244 4.20269 17.7835 4.17931C17.8399 4.15731 17.8131 4.15731 17.8536 4.15731V4.15662Z" fill="#863D33"/>
</svg>
