<svg width="24" height="24" viewBox="0 0 24 24" fill="none" xmlns="http://www.w3.org/2000/svg">
<path d="M8.58751 9.74995C8.58751 10.125 8.28751 10.4625 7.87501 10.4625H4.72501C4.35001 10.4625 4.01251 10.1625 4.01251 9.74995V8.84995C4.01251 8.47495 4.35001 8.13745 4.72501 8.13745H7.87501C8.25001 8.13745 8.58751 8.43745 8.58751 8.84995V9.74995Z" fill="#212528"/>
<path d="M21.375 9.7126C21.375 9.9376 21.1875 10.0876 21 10.0876H19.3125C19.0875 10.0876 18.9375 9.9001 18.9375 9.7126V9.2251C18.9375 9.0001 19.125 8.8501 19.3125 8.8501H21C21.225 8.8501 21.375 9.0376 21.375 9.2251V9.7126Z" fill="#212528"/>
<path d="M22.4625 20.9625C22.4625 21.9375 21.675 22.725 20.7 22.725H3.33751C2.36251 22.725 1.57501 21.9375 1.57501 20.9625V20.4375H22.4625V20.9625Z" fill="#212528"/>
<path d="M1.53741 11.1001C1.53741 10.1251 2.32491 9.33765 3.29991 9.33765H20.6624C21.6374 9.33765 22.4249 10.1251 22.4249 11.1001V11.6251H1.53741V11.1001Z" fill="#51575B"/>
<path d="M1.53741 11.55H22.4249V20.775H1.53741V11.55Z" fill="#3E4347"/>
<path d="M19.3875 10.8H8.92499L9.97499 5.06245C10.05 4.72495 10.5 4.23745 10.7625 4.12495C12.375 3.41245 15.975 3.41245 17.55 4.12495C17.8125 4.23745 18.2625 4.76245 18.3375 5.06245L19.3875 10.8Z" fill="#51575B"/>
<path d="M18.9 14.175H9.45001L10.3875 9.41255C10.4625 9.15005 10.875 8.70005 11.1 8.62505C12.525 8.02505 15.7875 8.02505 17.25 8.62505C17.475 8.73755 17.8875 9.15005 17.9625 9.41255L18.9 14.175Z" fill="#3E4347"/>
<path d="M21.3375 16.7999C21.3375 20.7749 18.1125 23.9999 14.1375 23.9999C10.1625 23.9999 6.9375 20.7749 6.9375 16.7999C6.9375 12.8249 10.1625 9.59985 14.1375 9.59985C18.1125 9.63735 21.3375 12.8624 21.3375 16.7999Z" fill="#788287"/>
<path d="M20.55 16.8C20.55 20.325 17.7 23.175 14.175 23.175C10.65 23.175 7.79999 20.325 7.79999 16.8C7.79999 13.275 10.65 10.425 14.175 10.425C17.7 10.425 20.55 13.275 20.55 16.8Z" fill="#212528"/>
<path d="M14.175 21.975C17.0331 21.975 19.35 19.6581 19.35 16.8C19.35 13.9419 17.0331 11.625 14.175 11.625C11.3169 11.625 9 13.9419 9 16.8C9 19.6581 11.3169 21.975 14.175 21.975Z" fill="#3E4347"/>
<path d="M14.175 19.6125C15.7283 19.6125 16.9875 18.3533 16.9875 16.8C16.9875 15.2467 15.7283 13.9875 14.175 13.9875C12.6217 13.9875 11.3625 15.2467 11.3625 16.8C11.3625 18.3533 12.6217 19.6125 14.175 19.6125Z" fill="#212528"/>
<path opacity="0.5" d="M17.9624 14.5874C17.9624 15.4874 17.2499 16.1999 16.3499 16.1999C15.4499 16.1999 14.7374 15.4874 14.7374 14.5874C14.7374 13.6874 15.4499 12.9749 16.3499 12.9749C17.2499 12.9749 17.9624 13.7249 17.9624 14.5874Z" fill="#F5F5F5"/>
<path opacity="0.5" d="M13.1625 18.8248C13.7217 18.8248 14.175 18.3715 14.175 17.8123C14.175 17.2531 13.7217 16.7998 13.1625 16.7998C12.6033 16.7998 12.15 17.2531 12.15 17.8123C12.15 18.3715 12.6033 18.8248 13.1625 18.8248Z" fill="#F5F5F5"/>
<path opacity="0.5" d="M11.3625 20.2122C11.6939 20.2122 11.9625 19.9436 11.9625 19.6122C11.9625 19.2808 11.6939 19.0122 11.3625 19.0122C11.0311 19.0122 10.7625 19.2808 10.7625 19.6122C10.7625 19.9436 11.0311 20.2122 11.3625 20.2122Z" fill="#F5F5F5"/>
<path d="M6.44999 19.3125C6.44999 19.6875 6.14999 20.025 5.73749 20.025H2.69999C2.32499 20.025 1.98749 19.725 1.98749 19.3125V12.975C1.98749 12.6 2.28749 12.2625 2.69999 12.2625H5.73749C6.11249 12.2625 6.44999 12.5625 6.44999 12.975V19.3125Z" fill="#636C72"/>
<path d="M4.83741 11.6251C5.41731 11.6251 5.88741 11.155 5.88741 10.5751C5.88741 9.99525 5.41731 9.52515 4.83741 9.52515C4.25752 9.52515 3.78741 9.99525 3.78741 10.5751C3.78741 11.155 4.25752 11.6251 4.83741 11.6251Z" fill="#212528"/>
<path d="M17.25 6.52515C17.25 6.90015 16.95 7.16265 16.6125 7.16265H11.7C11.325 7.16265 11.0625 6.86265 11.0625 6.52515V5.85015C11.0625 5.47515 11.3625 5.21265 11.7 5.21265H16.6125C16.9875 5.21265 17.25 5.51265 17.25 5.85015V6.52515Z" fill="white"/>
<path d="M15.9375 5.70015L20.4375 2.73765L19.6125 1.65015L15.9375 5.70015Z" fill="#FFCE31"/>
<path d="M21.1875 7.0875V5.8125L16.575 6.675L21.1875 7.0875Z" fill="#FFCE31"/>
<path d="M16.9124 0H15.3749L14.5499 5.4375L16.9124 0Z" fill="#FFCE31"/>
<path d="M12.6001 5.70015L8.7751 1.65015L7.9126 2.73765L12.6001 5.70015Z" fill="#FFCE31"/>
<path d="M12.7125 0H11.1375L13.725 5.4375L12.7125 0Z" fill="#FFCE31"/>
<path d="M7.01251 5.8125V7.0875L11.85 6.675L7.01251 5.8125Z" fill="#FFCE31"/>
</svg>
