<?xml version="1.0" standalone="no"?>
<!DOCTYPE svg PUBLIC "-//W3C//DTD SVG 20010904//EN"
 "http://www.w3.org/TR/2001/REC-SVG-20010904/DTD/svg10.dtd">
<svg version="1.0" xmlns="http://www.w3.org/2000/svg"
 width="432.000000pt" height="190.000000pt" viewBox="0 0 432.000000 190.000000"
 preserveAspectRatio="xMidYMid meet">

<g transform="translate(0.000000,190.000000) scale(0.100000,-0.100000)"
fill="#000000" stroke="none">
<path d="M194 1746 c-3 -8 2 -36 11 -62 9 -26 14 -53 11 -60 -3 -7 1 -38 9
-69 11 -41 15 -116 15 -280 0 -206 7 -275 27 -275 12 0 7 485 -6 565 -13 87
-14 105 -1 105 5 0 57 -32 115 -70 58 -39 167 -107 243 -152 243 -144 262
-153 262 -125 0 13 -22 27 -130 84 -36 19 -74 43 -85 53 -11 9 -47 33 -80 52
-190 111 -269 163 -328 215 -41 36 -55 40 -63 19z"/>
<path d="M4134 1492 c-7 -4 -45 -56 -84 -117 -119 -180 -186 -263 -334 -410
-191 -190 -526 -468 -724 -601 -170 -114 -357 -194 -502 -214 -138 -19 -168
-30 -65 -24 277 17 464 108 870 424 228 178 340 276 525 460 153 153 264 287
335 405 33 55 34 61 18 72 -19 15 -24 15 -39 5z"/>
<path d="M350 1450 c0 -23 58 -123 168 -290 103 -156 130 -190 257 -315 158
-156 237 -209 385 -258 117 -39 306 -48 439 -22 50 9 97 15 104 12 8 -3 19
-25 25 -49 34 -133 174 -276 334 -343 47 -19 50 -12 6 11 -119 61 -230 195
-268 326 -12 39 -18 74 -13 78 4 5 79 38 166 73 194 80 299 142 386 228 80 79
113 142 115 219 2 97 -77 226 -165 271 -151 77 -355 -84 -517 -409 l-67 -133
-5 -122 -5 -121 -50 -14 c-32 -9 -101 -15 -190 -15 -118 -1 -151 3 -213 22
-168 51 -260 107 -401 245 -144 140 -249 285 -371 511 -23 44 -47 86 -53 93
-11 15 -67 16 -67 2z m1899 -121 c93 -20 131 -93 118 -228 -7 -80 -33 -126
-119 -207 -92 -87 -230 -174 -357 -224 -122 -49 -126 -47 -117 70 9 105 28
182 67 268 66 145 169 285 232 316 37 18 106 20 176 5z"/>
</g>
</svg>
