<svg width="22" height="22" viewBox="0 0 22 22" fill="none" xmlns="http://www.w3.org/2000/svg">
<path d="M17.4625 4.50081C16.6221 3.65191 15.6211 2.97884 14.5178 2.52085C13.4146 2.06287 12.2312 1.82915 11.0366 1.83331C6.03165 1.83331 1.95248 5.91247 1.95248 10.9175C1.95248 12.5216 2.37415 14.08 3.16248 15.455L1.87915 20.1666L6.69165 18.9016C8.02082 19.6258 9.51498 20.0108 11.0366 20.0108C16.0416 20.0108 20.1208 15.9316 20.1208 10.9266C20.1208 8.49747 19.1766 6.21497 17.4625 4.50081ZM11.0366 18.4708C9.67998 18.4708 8.35082 18.1041 7.18665 17.4166L6.91165 17.2516L4.05165 18.0033L4.81248 15.2166L4.62915 14.9325C3.87542 13.7289 3.4752 12.3376 3.47415 10.9175C3.47415 6.75581 6.86582 3.36414 11.0275 3.36414C13.0441 3.36414 14.9417 4.15247 16.3625 5.58247C17.066 6.28277 17.6235 7.11575 18.0028 8.03311C18.382 8.95048 18.5753 9.93399 18.5717 10.9266C18.59 15.0883 15.1983 18.4708 11.0366 18.4708ZM15.18 12.8241C14.9508 12.7141 13.8325 12.1641 13.6308 12.0816C13.42 12.0083 13.2733 11.9716 13.1175 12.1916C12.9616 12.4208 12.5308 12.9341 12.4025 13.0808C12.2741 13.2366 12.1366 13.255 11.9075 13.1358C11.6783 13.0258 10.945 12.7783 10.0833 12.0083C9.40498 11.4033 8.95582 10.6608 8.81832 10.4316C8.68998 10.2025 8.79998 10.0833 8.91915 9.96414C9.01998 9.86331 9.14832 9.69831 9.25832 9.56997C9.36832 9.44164 9.41415 9.34081 9.48748 9.19414C9.56082 9.03831 9.52415 8.90997 9.46915 8.79997C9.41415 8.68997 8.95582 7.57164 8.77248 7.11331C8.58915 6.67331 8.39665 6.72831 8.25915 6.71914H7.81915C7.66332 6.71914 7.42498 6.77414 7.21415 7.00331C7.01248 7.23247 6.42582 7.78247 6.42582 8.90081C6.42582 10.0191 7.24165 11.1008 7.35165 11.2475C7.46165 11.4033 8.95582 13.695 11.2291 14.6758C11.77 14.9141 12.1916 15.0516 12.5216 15.1525C13.0625 15.3266 13.5575 15.2991 13.9516 15.2441C14.3917 15.18 15.2991 14.6941 15.4825 14.1625C15.675 13.6308 15.675 13.1816 15.6108 13.0808C15.5466 12.98 15.4091 12.9341 15.18 12.8241Z" fill="#863D33"/>
</svg>
